<?xml version="1.0" encoding="utf-8"?>
<!-- Generator: Adobe Illustrator 12.0.0, SVG Export Plug-In . SVG Version: 6.00 Build 51448)  -->
<!DOCTYPE svg PUBLIC "-//W3C//DTD SVG 1.1//EN" "http://www.w3.org/Graphics/SVG/1.1/DTD/svg11.dtd" [
	<!ENTITY ns_svg "http://www.w3.org/2000/svg">
	<!ENTITY ns_xlink "http://www.w3.org/1999/xlink">
]>
<svg  version="1.1" id="Layer_1" xmlns="&ns_svg;" xmlns:xlink="&ns_xlink;" width="529.031" height="294.07"
	 viewBox="0 0 529.031 294.07" overflow="visible" enable-background="new 0 0 529.031 294.07" xml:space="preserve">
<g>
	<path fill="#FBE143" d="M381.547,153.434c0,52.518-42.571,95.088-95.086,95.088s-95.087-42.57-95.087-95.088
		c0-52.51,42.572-95.086,95.087-95.086S381.547,100.924,381.547,153.434z"/>
	<g>
		<g>
			<path fill="#778637" d="M441.08,124.113c3.385-6.31,9.745-24.941-2.039-27.779c-12.287-2.272-12.535,15.965-7.994,22.808
				c-7.291-8.143-20.292-7.294-15.495,5.202c1.829,5.619,12.24,4.244,14.042,12.168c0.428,3.713-4.861,11.317-6.793,14.921
				c-10.68,17.997-29.365,16.529-42.999,3.342l-10.15-13.987l-24.825,18.016l25.592,35.266l-53.809,3.51l-0.949-17.109
				l-27.492,36.238l31.24,31.242l-1.097-19.744l29.983-1.955c9.369,21.231,21.387,42.947,32.733,61.361
				c6.678-18.356,16.325-40.192,15.36-60.869c-13.836,1.402-16.346,19.11-18.02,30.918c-6.824-10.306-11.572-21.485-17.327-32.242
				l39.115-2.551l27.744-1.811l-16.329-22.502l-14.491-19.97c3.968,0.804,8.26,0.548,13.13-1.417
				c16.617-6.174,26.818-29.706,27.462-44.441C464.275,162.072,466.771,110.045,441.08,124.113z"/>
		</g>
	</g>
	<g>
		<g>
			<polygon fill="#778637" points="347.104,104.333 299.961,22.99 286.639,0 273.396,23.036 224.318,108.41 250.91,123.697 
				286.747,61.358 321.619,121.529 308.607,130.31 353.814,135.342 364.63,92.506 			"/>
		</g>
	</g>
	<g>
		<g>
			<path fill="#778637" d="M221.45,269.127c1.325-13.716,5.333-26.652,7.584-40.099l42.182-1.022l-0.744-30.665l-59.343,1.438
				l19.09-39.867l16.563,6.441l-21.626-40.017l-41.366,15.526l17.759,6.904l-13.248,27.664
				c-11.549,12.667-28.456,14.799-40.434-1.301c-2.302-3.379-8.329-10.409-8.366-14.095c0.772-7.949,10.985-7.483,12.064-13.165
				c3.107-12.699-9.537-12.427-15.58-3.798c3.549-7.117,1.092-25.032-10.483-21.749c-11.023,3.797-2.62,21.578,1.41,27.494
				c-26.49-11.645-17.757,39.312,4.335,8.182c2.413,14.437,15.114,36.712,31.894,41.368c5.584,1.715,10.191,1.348,14.283-0.222
				l-4.764,9.948l-10.804,22.562l25.008-0.605l30.061-0.729c-5.598,21.411-9.633,44.42-12.267,64.748
				c16.745-10.059,37.988-20.943,50.259-37.617C243.287,248.83,230.185,261.007,221.45,269.127z"/>
		</g>
	</g>
	<g>
		<path fill="#778637" d="M303.742,159.879c0.271,5.177-1.49,10.149-4.96,14.002c-3.471,3.853-8.233,6.123-13.413,6.394
			c-10.688,0.556-19.838-7.687-20.395-18.374l-5.848,0.305c0.728,13.913,12.637,24.643,26.547,23.916
			c6.742-0.353,12.941-3.307,17.459-8.321c4.517-5.014,6.809-11.486,6.457-18.226L303.742,159.879z"/>
	</g>
	<circle fill="#778637" cx="255.439" cy="146.035" r="6.646"/>
	<path fill="#778637" d="M321.455,145.195c0,3.669-2.977,6.643-6.646,6.643c-3.671,0-6.646-2.974-6.646-6.643
		c0-3.675,2.976-6.646,6.646-6.646C318.479,138.549,321.455,141.521,321.455,145.195z"/>
	<g>
		<path fill="none" d="M178.452,63.338c-7-9-23-22-35-23c-16,0-19,19-3,18c13-1,9-19,3-27c-8-10-25-14-36-17"/>
		<path d="M179.948,60.746c-5.537-6.933-12.483-12.729-20.021-17.372c-6.8-4.188-14.881-7.511-22.583-3.884
			c-8.002,3.768-13.917,19.057-1.826,21.321c6.001,1.124,9.883-1.99,12.609-6.885c2.924-5.251,2.852-10.512,1.214-16.213
			c-5.012-17.441-25.053-21.808-40.394-25.968c-0.889-0.24-2.943,5.196-2.992,5.184c12.274,3.327,26.12,6.404,35.17,16.02
			c3.258,3.461,5.022,8.477,5.997,13.033c0.546,2.555,0.579,5.159,0.112,7.721c-0.389,2.133-6.133,2.095-7.656,2.041
			c-4.168-0.148-7.914-2.694-8.218-7.039c-0.329-4.692,7.843-6.09,11.769-5.643c12.979,1.479,26.021,13.093,33.827,22.867
			C176.786,65.716,180.642,61.615,179.948,60.746L179.948,60.746z"/>
	</g>
	<g>
		<path fill="none" d="M13.452,99.338c9-6,27-13,38-8c7,3,17,22,2,20c-19-3,0-20,11-20c13,0,21,6,26,18"/>
		<path d="M12.078,101.877c10.19-6.604,26.505-13.451,38.452-7.67c3.413,1.651,5.892,5.552,7.553,8.795
			c0.96,1.873,1.593,3.942,1.664,6.05c-0.002,0.447-0.05,0.89-0.145,1.326c1.833-2.419,1.875-3.046,0.127-1.88
			c-1.116,0.467-2.444,0.398-3.619,0.365c-2.573-0.071-5.286-0.928-7.4-2.383c-0.863-0.594-2.717-3.269-1.873-4.31
			c3.407-4.203,9.116-7.201,14.37-8.112c12.813-2.22,23.033,7.005,27.749,17.871c-0.306-0.705,3.586-3.814,2.992-5.184
			c-3.225-7.429-7.952-13.504-15.709-16.419c-7.041-2.647-14.205-1.854-20.598,1.834c-4.746,2.737-8.115,6.899-10.542,11.734
			c-3.014,6.006,0.955,8.937,6.856,10.034c5.286,0.982,8.011-2.129,9.974-6.568c2.063-4.665-0.474-9.558-3.201-13.406
			c-9.889-13.959-32.605-4.477-43.902,2.844C13.429,97.705,12.772,101.427,12.078,101.877L12.078,101.877z"/>
	</g>
	<g>
		<path fill="none" d="M99.452,182.338c-6,2-14,5-21,5c-2,0-7,2-9,1c-3-1-6-12,0-10c22,8-7,27-20,29"/>
		<path d="M100.948,179.746c-9.05,3.046-17.875,4.622-27.222,6.186c-3.229,0.54-4.612-1.482-5.644-4.212
			c-0.187-0.55-0.334-1.11-0.441-1.681c-0.97-4.329,1.588-0.109-1.292,0.664c1.478-0.396,3.632,1.048,4.864,1.686
			c2.563,1.326,4.627,3.552,4.72,6.534c0.096,3.063-4.106,5.604-6.287,7.234c-5.404,4.042-12.012,7.424-18.698,8.589
			c-1.54,0.269-2.133,5.033-2.992,5.184c8.908-1.554,18.043-6.84,24.244-13.329c4.141-4.333,9.759-12.468,4.356-17.755
			c-2.261-2.212-6.952-4.954-9.26-1.743c-2.039,2.837-3.237,5.484-2.458,8.962c1.349,6.02,5.441,5.225,10.406,4.106
			c3.28-0.739,6.733-0.621,10.062-1.346c4.306-0.937,8.481-2.493,12.65-3.896C99.588,184.38,99.881,180.105,100.948,179.746
			L100.948,179.746z"/>
	</g>
	<g>
		<path fill="none" d="M116.452,219.338c-6,8-23,19-29,7c22-11,12,25,6,34"/>
		<path d="M117.613,217.025c-5.822,7.428-21.857,18.852-28.665,6.721c-0.957,1.711-1.913,3.42-2.87,5.131
			c7.448-3.559,13.062-1.713,13.407,7.032c0.277,7.02-1.78,17.209-5.502,22.991c-0.529,0.823-3.06,5.978-1.063,2.875
			c4.973-7.728,8.114-16.783,9.313-25.877c0.509-3.861,0.701-8.523-1.517-11.926c-2.676-4.106-8.498-1.795-11.892-0.174
			c-0.71,0.34-3.271,4.415-2.87,5.131c6.992,12.457,23.499,0.168,29.335-7.279c0.839-1.07,1.531-2.277,2.14-3.491
			C117.51,218.002,118.333,216.105,117.613,217.025L117.613,217.025z"/>
	</g>
	<g>
		<path fill="none" d="M389.452,41.338c4-8,10-18,20-17s18,13,6,17c-18,7-16-36,8-33"/>
		<path d="M390.432,40.159c3.174-6.271,7.534-12.166,14.895-13.239c4.569-0.667,9.214,1.739,12.257,4.964
			c1.458,1.546,2.315,3.556,2.376,5.672c0.051,1.747,1.258-1.08-0.711,0.188c-1.023,0.659-2.496,1.107-3.715,1.463
			c-2.334,0.681-4.718,0.249-6.641-1.205c-4.465-3.378-4.287-10.795-3.43-15.665c1.441-8.192,8.556-12.205,16.493-11.406
			c1.185,0.119,2.625-5.22,2.992-5.184c-10.563-1.063-17.173,6.879-20.821,15.905c-2.576,6.378-4.565,19.896,4.152,22.786
			c4.51,1.494,9.615-1.93,11.975-5.477c3.073-4.618,3.68-8.701-0.387-13.01c-5.32-5.639-13.67-5.197-19.443-0.746
			c-5.44,4.195-8.92,11.326-11.951,17.312C386.806,45.81,389.988,41.033,390.432,40.159L390.432,40.159z"/>
	</g>
	<g>
		<path fill="none" d="M448.452,80.338c-4-27,40-10,28,4c-7,7-18-3-15-11c4-10,24-7,33-7"/>
		<path d="M449.948,77.746c-0.266-2.071-0.314-4.048,0.022-6.107c0.271-1.651-0.748,0.271,0.256-0.633
			c0.598-0.538,1.317-0.926,2.029-1.286c2.896-1.468,6.527-1.241,9.611-0.678c5.757,1.052,12.519,4.596,14.74,10.331
			c0.545,1.408,0.53,2.986,0.066,4.41c0.731-2.244-1.453-0.174-2.646,0.173c-1.336,0.389-2.781,0.072-4.078-0.275
			c-2.456-0.659-4.391-2.665-5.808-4.66c-1.233-1.735-2.319-5.905-1.347-6.764c7.3-6.434,21.354-3.407,30.161-3.327
			c1.326,0.012,2.45-5.188,2.992-5.184c-12.806-0.114-28.854-3.522-35.343,10.47c-3.025,6.521,1.201,14.06,8.375,15.059
			c5.494,0.765,9.292-5.986,10.717-10.361c3.075-9.441-11.324-15.117-18.302-15.459c-10.282-0.504-15.592,10.488-14.439,19.476
			C446.799,81.702,450.175,79.516,449.948,77.746L449.948,77.746z"/>
	</g>
	<g>
		<path fill="none" d="M469.452,144.338c16,0,26-1,33,17c8,23-16,25-15,7c17-11,30-1,40,13"/>
		<path d="M467.956,146.93c6.761-0.01,13.861-0.482,20.309,1.917c6.915,2.573,10.968,9.8,13.134,16.438
			c1.73,5.304,2.885,12.953-4.703,12.484c-5.885-0.363-7.871-7.044-7.731-11.89c-0.962,1.666-1.924,3.332-2.886,4.998
			c7.141-4.394,14.591-6.009,22.503-2.822c7.33,2.951,12.864,9.67,17.375,15.875c-0.212-0.292,3.688-4.227,2.992-5.184
			c-4.916-6.762-10.637-13.161-18.554-16.349c-3.654-1.473-7.613-1.565-11.446-0.923c-2.894,0.485-8.389,2.205-10.335,4.551
			c-3.036,3.658-3.332,7.683-1.451,12.004c1.617,3.712,5.629,5.68,9.5,4.615c3.59-0.987,5.682-5.028,7.214-8.083
			c2.563-5.108,1.788-10.556,0.072-15.815c-2.091-6.408-6.405-12.39-12.691-15.082c-6.194-2.654-13.747-1.927-20.309-1.918
			C469.607,141.748,468.518,146.929,467.956,146.93L467.956,146.93z"/>
	</g>
	<g>
		<path fill="none" d="M441.452,194.338c19-4,23,23,10,15c11-13,25,1,27,14"/>
		<path d="M439.956,196.93c6.396-1.16,12.363,0.813,15.854,6.475c1.268,2.059,1.957,4.607,1.573,7.009
			c0.688-4.305,2.643-2.178-0.486-2.185c-1.401-0.003-2.78-0.808-3.949-1.482c-0.886,1.635-1.771,3.27-2.657,4.904
			c11.393-12.436,24.453,2.249,26.665,14.279c-0.208-1.135,3.306-3.475,2.992-5.184c-2.402-13.066-15.843-26.266-27.335-13.721
			c-0.36,0.393-3.113,4.641-2.657,4.904c2.354,1.359,5.05,2.361,7.063,0.023c1.821-2.115,3.499-5.207,3.513-8.05
			c0.044-9.111-9.818-13.563-17.583-12.157C441.402,192.026,440.825,196.771,439.956,196.93L439.956,196.93z"/>
	</g>
	<g>
		<path fill="none" d="M41.452,8.338c3,7,10,13,16,18"/>
		<path d="M39.956,10.93c3.414,7.447,9.837,12.853,16,18c0.091,0.075,3.583-4.69,2.992-5.184c-6.163-5.146-12.586-10.552-16-18
			C43.253,6.412,39.345,9.597,39.956,10.93L39.956,10.93z"/>
	</g>
	<g>
		<path fill="none" d="M1.452,176.338c3-4,8-8,13-10"/>
		<path d="M0.291,178.65c3.295-4.244,7.71-7.637,12.665-9.721c0.761-0.32,1.375-1.782,1.755-2.442
			c0.166-0.287,1.064-2.668,1.237-2.741c-5.256,2.213-9.84,5.775-13.335,10.279c-0.835,1.076-1.53,2.275-2.14,3.491
			C0.395,177.672-0.425,179.573,0.291,178.65L0.291,178.65z"/>
	</g>
	<g>
		<path fill="none" d="M64.452,235.338c-8,6-14,14-21,20"/>
		<path d="M65.826,232.799c-7.701,5.934-13.712,13.616-21,20c-1.304,1.143-2.006,4.428-2.748,5.078c7.288-6.385,13.299-14.067,21-20
			C64.431,236.834,65.098,233.36,65.826,232.799L65.826,232.799z"/>
	</g>
	<g>
		<path fill="none" d="M452.452,19.338c4-3,6-7,7-12"/>
		<path d="M451.078,21.877c5.172-4.037,8.545-10.666,9.886-16.998c0.05-0.234-1.229,1.406-1.364,1.626
			c-0.604,0.981-1.416,2.143-1.659,3.292c-0.329,1.556-0.733,3.082-1.362,4.547c-0.213,0.492-1.996,1.865-2.752,2.455
			c-0.889,0.693-1.502,2.124-2.021,3.084C451.693,20.087,450.859,22.047,451.078,21.877L451.078,21.877z"/>
	</g>
	<g>
		<path fill="none" d="M502.452,118.338c8,2,16,4,25,4"/>
		<path d="M500.956,120.93c8.26,2.061,16.451,3.866,25,4c1.317,0.02,2.462-5.191,2.992-5.184c-8.549-0.133-16.74-1.938-25-4
			C503.021,115.516,501.043,120.951,500.956,120.93L500.956,120.93z"/>
	</g>
	<g>
		<path fill="none" d="M501.452,213.338c5,6,13,10,20,14"/>
		<path d="M499.956,215.93c5.448,6.231,12.909,9.975,20,14c0.403,0.229,3.372-4.968,2.992-5.184c-7.091-4.025-14.552-7.768-20-14
			C503.071,210.888,499.271,215.146,499.956,215.93L499.956,215.93z"/>
	</g>
	<g>
		<path fill="none" d="M235.452,41.338c-3-12-13-22-19-33"/>
		<path d="M236.948,38.746c-3.439-12.476-12.78-21.934-19-33c0.285,0.507-3.656,4.002-2.992,5.184c6.22,11.065,15.561,20.523,19,33
			C233.687,42.953,237.388,40.341,236.948,38.746L236.948,38.746z"/>
	</g>
	<g>
		<path fill="none" d="M351.452,33.338c1-5,4-10,8-15"/>
		<path d="M352.964,30.879c0.88-3.938,2.853-7.088,5.327-10.229c0.842-1.067,1.531-2.278,2.141-3.491
			c0.078-0.157,0.904-2.051,0.182-1.134c-4.58,5.812-9.037,12.447-10.673,19.771c-0.051,0.228,1.227-1.402,1.364-1.626
			C351.912,33.182,352.706,32.032,352.964,30.879L352.964,30.879z"/>
	</g>
	<g>
		<path fill="none" d="M164.452,247.338c-5,5-11,11-17,15"/>
		<path d="M165.826,244.799c-5.349,5.348-10.735,10.717-17,15c-0.889,0.607-1.531,2.178-2.021,3.084
			c-0.104,0.19-0.979,2.166-0.727,1.994c6.265-4.285,11.651-9.653,17-15c0.852-0.853,1.455-2.036,2.021-3.084
			C165.234,246.545,165.972,244.653,165.826,244.799L165.826,244.799z"/>
	</g>
	<g>
		<path fill="none" d="M424.452,248.338c7,3,14,5,19,10"/>
		<path d="M422.956,250.93c6.637,2.793,13.655,4.955,19,10c0,0,3.63-4.582,2.992-5.184c-5.345-5.044-12.363-7.206-19-10
			C425.318,245.481,422.763,250.848,422.956,250.93L422.956,250.93z"/>
	</g>
	<g>
		<path fill="none" d="M249.452,168.338c8,2,17,0,20-9"/>
		<path d="M247.956,170.93c5.331,1.215,10.792,0.907,15.382-2.275c3.639-2.523,6.038-7.456,7.537-11.479
			c0.406-1.092-0.79,0.57-0.892,0.725c-0.739,1.124-1.481,2.334-1.954,3.6c-1.015,2.724-5.459,4.104-8.028,4.65
			c-2.979,0.635-6.121,0.265-9.053-0.404C249.982,165.526,248.083,170.958,247.956,170.93L247.956,170.93z"/>
	</g>
</g>
</svg>
