<?xml version="1.0" encoding="utf-8"?>
<!-- Generator: Adobe Illustrator 12.0.0, SVG Export Plug-In . SVG Version: 6.00 Build 51448)  -->
<!DOCTYPE svg PUBLIC "-//W3C//DTD SVG 1.1//EN" "http://www.w3.org/Graphics/SVG/1.1/DTD/svg11.dtd" [
	<!ENTITY ns_svg "http://www.w3.org/2000/svg">
	<!ENTITY ns_xlink "http://www.w3.org/1999/xlink">
]>
<svg  version="1.1" id="Layer_1" xmlns="&ns_svg;" xmlns:xlink="&ns_xlink;" width="628.295" height="442.047"
	 viewBox="0 0 628.295 442.047" overflow="visible" enable-background="new 0 0 628.295 442.047" xml:space="preserve">
<circle fill="#FBE143" cx="309.622" cy="183.826" r="104.789"/>
<g>
	<path fill="#778637" d="M240.326,345.512c-1.128,30.422,2.253,65.352,6.76,94.646c14.647-15.773,33.804-33.803,41.689-55.209
		c-14.647-4.508-24.788,12.393-31.548,23.66c-3.381-18.027-2.254-36.057-5.635-54.084"/>
</g>
<g>
	<path fill="#778637" d="M380.12,353.6c7.893,29.4,21.419,61.783,34.362,88.447c9.347-19.391,22.336-42.266,23.561-65.047
		c-15.324,0.012-20.032,19.15-23.171,31.91c-8.545-16.23-12.783-33.789-21.326-50.02"/>
</g>
<g>
	<path fill="#778637" d="M209.341,237.908c-18.028-1.127-36.057,10.141-49.578-6.761c-12.394-14.648-10.141-42.818-3.38-57.464
		c-39.436,14.646-15.774-37.183,1.127-10.141c0-7.888,3.38-29.297,15.774-25.917c13.521,4.508,2.254,24.789-5.633,27.042
		c11.267-5.633,24.788,2.255,13.521,12.396c-4.507,4.506-13.521-2.255-19.155,4.506c-2.254,3.38-1.126,13.521-1.126,18.028
		c1.126,27.042,25.915,33.803,48.45,21.409"/>
</g>
<g>
	<path fill="#778637" d="M420.045,211.995c18.796-1.129,37.595,10.141,51.693-6.761c12.924-14.65,10.577-42.818,3.526-57.464
		c41.12,14.646,16.448-37.183-1.176-10.141c0-7.89-3.525-29.297-16.449-25.917c-14.099,4.506-2.35,24.788,5.873,27.042
		c-11.748-5.635-25.848,2.255-14.099,12.396c4.704,4.506,14.099-2.255,19.975,4.506c2.35,3.38,1.175,13.521,1.175,18.027
		c-1.175,27.042-27.022,33.803-50.519,21.411"/>
</g>
<g>
	<g>
		<polygon fill="#778637" points="380.703,146.857 328.751,88.707 314.07,72.271 299.478,88.738 245.392,149.774 274.696,160.702 
			314.189,116.134 352.62,159.151 338.281,165.429 388.101,169.027 400.019,138.402 		"/>
	</g>
</g>
<path fill="none" stroke="#778637" stroke-width="8.4506" d="M331.771,204.914c-3.294,10.055-14.113,15.531-24.167,12.237
	c-10.053-3.292-15.531-14.112-12.236-24.165"/>
<circle fill="#778637" cx="276.381" cy="171.995" r="7.324"/>
<circle fill="#778637" cx="345.114" cy="179.882" r="7.324"/>
<g>
	<g>
		<g>
			<path fill="none" d="M190.432,61.665c-8.055-20.711-25.315-39.121-35.671-58.683"/>
			<path d="M192.153,58.683C183.563,37.241,167.353,20.184,156.482,0c0.335,0.623-4.196,4.565-3.443,5.964
				c10.871,20.184,27.08,37.241,35.671,58.683C188.359,63.771,192.807,60.314,192.153,58.683L192.153,58.683z"/>
		</g>
	</g>
	<g>
		<g>
			<path fill="none" d="M106.434,98.487C90.325,84.679,73.063,66.27,58.105,50.16"/>
			<path d="M108.155,95.505C90.895,80.609,75.324,63.863,59.827,47.178c0.1,0.108-4.218,5.13-3.443,5.964
				c15.498,16.684,31.068,33.431,48.329,48.327C104.788,101.534,108.85,96.105,108.155,95.505L108.155,95.505z"/>
		</g>
	</g>
	<g>
		<g>
			<path fill="none" d="M79.968,149.115c-19.561-10.355-55.231-8.055-78.246-11.506"/>
			<path d="M81.689,146.133c-11.59-5.917-25.045-7.279-37.828-8.342c-13.462-1.119-27.032-1.234-40.418-3.164
				c-1.279-0.184-3.117,6.011-3.443,5.964c13.38,1.929,26.957,2.105,40.418,3.164c12.765,1.004,26.266,2.439,37.828,8.342
				C78.808,152.383,82.05,146.317,81.689,146.133L81.689,146.133z"/>
		</g>
	</g>
	<g>
		<g>
			<path fill="none" d="M92.625,211.252c-10.355,19.561-37.972,26.466-55.233,36.821"/>
			<path d="M91.88,211.878c-5.158,9.319-16.645,15.275-25.769,19.892c-9,4.555-18.433,8.252-27.139,13.382
				c-1.624,0.957-2.393,5.389-3.161,5.842c10.678-6.293,22.39-10.59,33.224-16.601c10.442-5.794,18.551-13.317,24.335-23.768
				C95.71,206.398,92.941,209.961,91.88,211.878L91.88,211.878z"/>
		</g>
	</g>
	<g>
		<g>
			<path fill="none" d="M459.687,54.762c14.959-12.656,34.519-20.71,51.78-31.069"/>
			<path d="M458.105,57.683c15.593-12.944,34.482-20.791,51.78-31.069c1.623-0.964,2.391-5.383,3.162-5.842
				c-17.299,10.278-36.188,18.125-51.78,31.069C459.742,53.107,458.954,56.978,458.105,57.683L458.105,57.683z"/>
		</g>
	</g>
	<g>
		<g>
			<path fill="none" d="M545.985,149.115c18.411-14.957,48.329-16.109,70.191-19.56"/>
			<path d="M544.404,152.036c19.581-15.435,46.467-15.849,70.051-19.499c1.752-0.271,2.489-5.816,3.443-5.964
				c-23.691,3.667-50.66,4.114-70.332,19.621C546.019,147.414,545.246,151.373,544.404,152.036L544.404,152.036z"/>
		</g>
	</g>
	<g>
		<g>
			<path fill="none" d="M527.575,226.211c29.918,3.453,57.532,5.753,86.301,14.957"/>
			<path d="M525.854,229.193c29.076,3.338,58.253,6.118,86.301,14.957c0.934,0.294,3.475-5.954,3.443-5.964
				c-28.048-8.838-57.225-11.619-86.301-14.957C527.961,223.076,526.245,229.238,525.854,229.193L525.854,229.193z"/>
		</g>
	</g>
	<g>
		<g>
			<path fill="none" d="M533.329,280.291c32.218,11.508,63.286,34.522,93.203,51.78"/>
			<path d="M531.607,283.272c33.604,12.209,62.507,33.988,93.203,51.781c0.445,0.258,3.895-5.701,3.443-5.963
				c-30.696-17.795-59.6-39.572-93.203-51.781C534.213,277.005,531.485,283.229,531.607,283.272L531.607,283.272z"/>
		</g>
	</g>
</g>
<polygon fill="#778637" points="439.171,265.48 469.745,263.486 451.751,238.688 405.553,175.027 378.194,194.879 406.396,233.744 
	347.099,237.609 346.052,218.755 315.755,258.691 350.184,293.122 348.974,271.362 370.678,269.946 371.656,336.555 
	258.408,337.405 257.396,272.105 297.074,271.143 296.253,237.35 230.856,238.936 251.896,195.003 270.147,202.099 246.313,158 
	200.729,175.111 220.3,182.72 188.463,249.202 176.557,274.066 204.117,273.397 223.597,272.925 224.71,344.776 224.71,371.469 
	407.085,368.051 404.457,267.744 "/>
</svg>
