<?xml version="1.0" encoding="utf-8"?>
<!-- Generator: Adobe Illustrator 12.0.0, SVG Export Plug-In . SVG Version: 6.00 Build 51448)  -->
<!DOCTYPE svg PUBLIC "-//W3C//DTD SVG 1.1//EN" "http://www.w3.org/Graphics/SVG/1.1/DTD/svg11.dtd" [
	<!ENTITY ns_svg "http://www.w3.org/2000/svg">
	<!ENTITY ns_xlink "http://www.w3.org/1999/xlink">
]>
<svg  version="1.1" id="Layer_1" xmlns="&ns_svg;" xmlns:xlink="&ns_xlink;" width="163.066" height="26.411"
	 viewBox="0 0 163.066 26.411" overflow="visible" enable-background="new 0 0 163.066 26.411" xml:space="preserve">
<g>
	<path fill="none" d="M1.635,23.952c-3-28,29-10,38-5c16,7,27,3,40-7c17-12,23-13,41-2c10,6,33,22,41,6"/>
	<path d="M3.146,21.493c-0.174-1.93-0.235-3.815-0.09-5.748c0.061-0.627,0.156-1.249,0.286-1.866
		c0.605-3.321-0.883,0.366,0.325-0.686c2.092-1.82,5.144-2.029,7.775-1.927c6.003,0.233,11.97,2.871,17.325,5.379
		c6.293,2.945,11.782,6.42,18.723,7.874c9.757,2.045,18.841-1.781,26.793-7.124c8.098-5.44,16.243-13.017,26.669-12.449
		c8.739,0.476,16.766,6.763,23.982,11.142c6.896,4.183,14.388,8.435,22.545,9.301c7.434,0.789,11.561-4.052,14.803-9.981
		c2.014-3.684-0.381-0.583-1.295,1.09c-4.107,7.513-17.244,2.5-22.631,0.074c-8.281-3.73-15.59-9.263-23.662-13.388
		c-8.35-4.268-15.897-4.251-24.133,0.088C80.195,8.732,72.281,17.578,60.265,19.594C45.016,22.151,32.641,9.839,18.455,6.65
		C13.582,5.555,8.194,5.646,4.814,9.776c-3.972,4.852-5.245,10.486-4.691,16.635C0.064,25.761,3.287,23.052,3.146,21.493
		L3.146,21.493z"/>
</g>
</svg>
