<?xml version="1.0" encoding="utf-8"?>
<!-- Generator: Adobe Illustrator 12.0.0, SVG Export Plug-In . SVG Version: 6.00 Build 51448)  -->
<!DOCTYPE svg PUBLIC "-//W3C//DTD SVG 1.1//EN" "http://www.w3.org/Graphics/SVG/1.1/DTD/svg11.dtd" [
	<!ENTITY ns_svg "http://www.w3.org/2000/svg">
	<!ENTITY ns_xlink "http://www.w3.org/1999/xlink">
]>
<svg  version="1.1" id="Layer_1" xmlns="&ns_svg;" xmlns:xlink="&ns_xlink;" width="175.068" height="27.278"
	 viewBox="0 0 175.068 27.278" overflow="visible" enable-background="new 0 0 175.068 27.278" xml:space="preserve">
<g>
	<path fill="none" d="M1.496,23.554c18-3,23-26,44-20c17,5,23,20,43,21c29,2,61-30,85-6"/>
	<path d="M0,26.145C13.793,23.485,20.156,8.7,33.493,5.545c15.98-3.782,28.265,13.027,41.321,18.853
		C106.81,38.675,143.564-6.19,172,21.145c-0.012-0.012,3.637-4.564,2.992-5.182c-13.342-12.826-30.01-9.049-45.811-3.479
		c-16.049,5.658-33.109,13.391-50.192,7.209c-14.51-5.25-24.418-21.572-41.472-19.516C23.554,1.861,16.938,18.273,2.992,20.963
		C1.437,21.262,0.887,25.975,0,26.145L0,26.145z"/>
</g>
</svg>
