<?xml version="1.0" encoding="utf-8"?>
<!-- Generator: Adobe Illustrator 12.0.0, SVG Export Plug-In . SVG Version: 6.00 Build 51448)  -->
<!DOCTYPE svg PUBLIC "-//W3C//DTD SVG 1.1//EN" "http://www.w3.org/Graphics/SVG/1.1/DTD/svg11.dtd" [
	<!ENTITY ns_svg "http://www.w3.org/2000/svg">
	<!ENTITY ns_xlink "http://www.w3.org/1999/xlink">
]>
<svg  version="1.1" id="Layer_1" xmlns="&ns_svg;" xmlns:xlink="&ns_xlink;" width="197.085" height="22.744"
	 viewBox="0 0 197.085 22.744" overflow="visible" enable-background="new 0 0 197.085 22.744" xml:space="preserve">
<g>
	<path fill="none" d="M1.512,17.331c5-31,40-3,52,1c25,8,30-12,51-14c17-2,27,17,46,14c13-2,34.001-26,45.001-6"/>
	<path d="M3.023,14.872c3.596-20.024,31.399-2.875,41.192,2.366c7.542,4.036,15.484,6.661,24.147,4.998
		c8.118-1.559,14.608-7.511,21.697-11.334c9.372-5.056,19.138-5.174,28.559-0.396c9.105,4.619,16.932,10.989,27.679,10.702
		c15.419-0.411,35.658-26.835,47.719-6.286c-0.277-0.472,3.664-4.037,2.992-5.184c-11.762-20.039-32.759,5.106-47.719,6.287
		c-10.376,0.819-19.04-6.107-27.679-10.702c-8.818-4.689-17.855-4.504-26.889-0.449c-8.103,3.637-14.533,10.099-23.367,12.179
		c-8.485,1.998-16.768-1.077-24.147-4.998C37.582,6.94,16.687-7.207,6.96,4.55C3.326,8.941,1.004,14.203,0,19.79
		C0.171,18.838,2.718,16.571,3.023,14.872L3.023,14.872z"/>
</g>
</svg>
