<?xml version="1.0" encoding="utf-8"?>
<!-- Generator: Adobe Illustrator 12.0.0, SVG Export Plug-In . SVG Version: 6.00 Build 51448)  -->
<!DOCTYPE svg PUBLIC "-//W3C//DTD SVG 1.1//EN" "http://www.w3.org/Graphics/SVG/1.1/DTD/svg11.dtd" [
	<!ENTITY ns_svg "http://www.w3.org/2000/svg">
	<!ENTITY ns_xlink "http://www.w3.org/1999/xlink">
]>
<svg  version="1.1" id="Layer_1" xmlns="&ns_svg;" xmlns:xlink="&ns_xlink;" width="172.939" height="29.109"
	 viewBox="0 0 172.939 29.109" overflow="visible" enable-background="new 0 0 172.939 29.109" xml:space="preserve">
<g>
	<path fill="none" d="M1.565,26.65c-2-23,24-18,37-13c18,7,29,13,46,3c20-12,23-19,46-10c14,6,26,15,41,6"/>
	<path d="M3.077,24.191c-0.105-1.596-0.117-3.146,0.008-4.741c0.071-0.685,0.181-1.362,0.33-2.034
		c0.587-3.05-0.959,0.09,0.877-1.661c1.981-1.891,4.714-2.772,7.333-3.309c5.552-1.138,11.541-0.127,16.972,1.153
		c15.781,3.722,29.869,14.565,46.66,9.295c14.882-4.671,24.966-19.951,41.863-17.267c18.535,2.945,33.947,20.275,53.07,9.561
		c1.417-0.793,2.095-4.711,2.748-5.076C151.75,21.983,134.564-1.143,113.312,0.044c-7.158,0.398-13.45,5.162-19.214,8.925
		c-9.359,6.108-18.43,11.434-29.972,10.067C48.124,17.142,34.82,6.356,18.211,6.866C6.32,7.231-0.688,17.812,0.054,29.109
		C0.009,28.427,3.181,25.772,3.077,24.191L3.077,24.191z"/>
</g>
</svg>
