<?xml version="1.0" encoding="utf-8"?>
<!-- Generator: Adobe Illustrator 12.0.0, SVG Export Plug-In . SVG Version: 6.00 Build 51448)  -->
<!DOCTYPE svg PUBLIC "-//W3C//DTD SVG 1.1//EN" "http://www.w3.org/Graphics/SVG/1.1/DTD/svg11.dtd" [
	<!ENTITY ns_svg "http://www.w3.org/2000/svg">
	<!ENTITY ns_xlink "http://www.w3.org/1999/xlink">
]>
<svg  version="1.1" id="Layer_1" xmlns="&ns_svg;" xmlns:xlink="&ns_xlink;" width="31.051" height="34.771"
	 viewBox="0 0 31.051 34.771" overflow="visible" enable-background="new 0 0 31.051 34.771" xml:space="preserve">
<g>
	<path fill="none" d="M29.496,9.179c-4-11-16-7-20,0c-2,6,1,18,3,23"/>
	<path d="M30.992,6.587c-4.176-10.174-15.372-7.384-20.488,0.39C5.048,15.266,7.646,26.03,11,34.771
		c-0.303-0.789,3.546-3.741,2.992-5.184c-2.622-6.83-5.019-15.639-2.984-22.867c-0.553,1.098-1.106,2.194-1.66,3.292
		c1.988-3.189,6.417-4.932,9.982-5.073C23.659,4.768,26.5,8.116,28,11.771C27.695,11.027,31.568,7.992,30.992,6.587L30.992,6.587z"
		/>
</g>
<g>
	<path fill="none" d="M1.496,18.179c6,0,12,0,18,0"/>
	<path d="M0,20.771c6,0,12,0,18,0c1.339,0,2.433-5.184,2.992-5.184c-6,0-12,0-18,0C1.653,15.587,0.559,20.771,0,20.771L0,20.771z"/>
</g>
</svg>
