<?xml version="1.0" encoding="utf-8"?>
<!-- Generator: Adobe Illustrator 12.0.0, SVG Export Plug-In . SVG Version: 6.00 Build 51448)  -->
<!DOCTYPE svg PUBLIC "-//W3C//DTD SVG 1.1//EN" "http://www.w3.org/Graphics/SVG/1.1/DTD/svg11.dtd" [
	<!ENTITY ns_svg "http://www.w3.org/2000/svg">
	<!ENTITY ns_xlink "http://www.w3.org/1999/xlink">
]>
<svg  version="1.1" id="Layer_1" xmlns="&ns_svg;" xmlns:xlink="&ns_xlink;" width="45.097" height="48.592"
	 viewBox="0 0 45.097 48.592" overflow="visible" enable-background="new 0 0 45.097 48.592" xml:space="preserve">
<g>
	<path fill="none" d="M4.567,38.069c-16-32,31-49,37-22c3,13,4,24-7,28c-7,3-30,3-33-4"/>
	<path d="M6.063,35.478c-2.563-5.339-3.91-10.952-2.891-16.861c0.897-5.201,5.1-8.456,9.543-10.781
		c7.653-4.005,17.861-3.664,23.763,3.146c3.749,4.325,4.453,10.884,5.228,16.298c0.357,2.505,1.359,9.048-0.679,11.203
		c-1.997,2.11-4.991,3.177-7.749,3.858c-5.438,1.343-11.371,1.249-16.905,0.74c-4.332-0.397-11.054-1.252-13.31-5.604
		c0.296,0.571-3.638,3.938-2.992,5.184c2.884,5.562,12.532,5.707,17.854,5.885c6.867,0.229,14.947-0.241,20.354-4.986
		c4.38-3.844,6.673-10.498,6.805-16.121c0.169-7.194-1.259-16.615-6.118-22.222C31.29-3.643,17.001,0.035,9.476,6.958
		c-9.627,8.855-11.983,22.077-6.404,33.703C2.769,40.029,6.688,36.779,6.063,35.478L6.063,35.478z"/>
</g>
<g>
	<path fill="none" d="M28.567,23.069c-15-10-15,17-1,5"/>
	<path d="M30.063,20.478c-2.184-1.438-4.941-2.791-7.618-2.07c-0.881,0.237-1.682,0.727-2.312,1.381
		c-1.551,1.611-2.65,3.73-3.596,5.731c-1.383,2.93-1.22,8.196,3.085,8.278c2.454,0.048,4.801-1.688,6.57-3.19
		c0.882-0.748,1.484-2.09,2.021-3.083c0.283-0.522,0.568-1.059,0.775-1.617c-0.013,0.034,0.247-0.628-0.049-0.376
		c-1.888,1.602-4.429,3.478-7.07,3.014c-1.664-0.291-2.7-1.734-3.05-3.298c-0.185-0.827-0.146-1.697,0.016-2.523
		c0.02-0.097,0.168-0.63,0.099-0.411c0.031-0.1,0.067-0.198,0.104-0.296c0.135-0.361-0.178,0.401-0.02,0.05
		c-0.436,0.967-1.26,2.333-1.695,2.889c0.237-0.303,0.076-0.122,0.36-0.382c1.653-1.513,4.021-1.352,6.002-0.667
		c1.204,0.417,2.324,1.056,3.384,1.755C27.354,25.847,30.532,20.787,30.063,20.478L30.063,20.478z"/>
</g>
</svg>
