<?xml version="1.0" encoding="utf-8"?>
<!-- Generator: Adobe Illustrator 12.0.0, SVG Export Plug-In . SVG Version: 6.00 Build 51448)  -->
<!DOCTYPE svg PUBLIC "-//W3C//DTD SVG 1.1//EN" "http://www.w3.org/Graphics/SVG/1.1/DTD/svg11.dtd" [
	<!ENTITY ns_svg "http://www.w3.org/2000/svg">
	<!ENTITY ns_xlink "http://www.w3.org/1999/xlink">
]>
<svg  version="1.1" id="Layer_1" xmlns="&ns_svg;" xmlns:xlink="&ns_xlink;" width="40.664" height="32.843"
	 viewBox="0 0 40.664 32.843" overflow="visible" enable-background="new 0 0 40.664 32.843" xml:space="preserve">
<g>
	<path fill="none" d="M1.492,13.433c1-4,4-5,3-10c9-4,13,4,16,12c6-4,11-9,18-12c2,8,0,21-8,25c-12,7-19-6-25-14"/>
	<path d="M2.915,11.271c1.259-3.886,3.627-6.052,3.073-10.43C4.99,2.569,3.993,4.296,2.996,6.024c9.153-3.54,13.191,4.656,16,12
		c0.041-0.018,0.082-0.036,0.122-0.054C20.636,16.929,36.76,4.967,37.234,7.095c1.287,5.791,0.803,14.576-4.359,18.228
		c-11.623,8.223-19.954-5.449-25.887-13.481c0.205,0.278-3.688,4.241-2.992,5.184c6.817,9.227,15.765,22.452,27.951,11.953
		c7.503-6.464,10.089-18.925,8.041-28.137c-0.041,0.018-0.082,0.036-0.122,0.054c-3.611,1.658-6.846,3.76-10.037,6.117
		c-1.767,1.305-3.494,2.663-5.254,3.977c-2.547,1.899-3.126,0.382-4.099-1.89C17.719,2.655,13.265-1.973,5.988,0.841
		C4.961,1.238,2.858,4.939,2.996,6.024c0.487,3.846-1.793,6.073-2.927,9.57c-0.356,1.099,0.778-0.552,0.892-0.725
		C1.685,13.77,2.504,12.534,2.915,11.271L2.915,11.271z"/>
</g>
</svg>
