<?xml version="1.0" encoding="utf-8"?>
<!-- Generator: Adobe Illustrator 12.0.0, SVG Export Plug-In . SVG Version: 6.00 Build 51448)  -->
<!DOCTYPE svg PUBLIC "-//W3C//DTD SVG 1.1//EN" "http://www.w3.org/Graphics/SVG/1.1/DTD/svg11.dtd" [
	<!ENTITY ns_svg "http://www.w3.org/2000/svg">
	<!ENTITY ns_xlink "http://www.w3.org/1999/xlink">
]>
<svg  version="1.1" id="Layer_1" xmlns="&ns_svg;" xmlns:xlink="&ns_xlink;" width="68.616" height="70.822"
	 viewBox="0 0 68.616 70.822" overflow="visible" enable-background="new 0 0 68.616 70.822" xml:space="preserve">
<g>
	<g>
		<polygon fill="#F3F4D2" points="42.335,50.025 3.454,31.88 2.542,18.259 5.61,12.454 9.511,7.006 17.065,2.72 59.179,16.517 
			61.731,27.676 60.694,33.356 58.511,38.943 53.944,45.49 		"/>
		<path fill="#1C1C1A" d="M43.393,47.76L4.512,29.614l1.437,2.099L5.036,18.092l-0.284,1.335l3.068-5.805l-0.177,0.287l3.9-5.448
			l-0.8,0.72l7.555-4.286l-2.012,0.201L58.4,18.893l-1.659-1.818l2.553,11.159l-0.021-1.007l-1.037,5.681l0.131-0.461l-2.184,5.587
			l0.277-0.521l-4.566,6.547l1.141-0.898l-11.609,4.535L43.393,47.76z M55.995,46.921l4.566-6.547l0.17-0.244l0.107-0.276
			l2.184-5.587l0.088-0.225l0.043-0.236l1.037-5.681l0.093-0.506l-0.114-0.501l-2.553-11.159l-0.315-1.378l-1.344-0.44L17.844,0.344
			L16.793,0l-0.961,0.545L8.277,4.831L7.799,5.104L7.478,5.551l-3.9,5.448l-0.098,0.138L3.4,11.286l-3.068,5.805L0,17.718
			l0.048,0.708L0.96,32.047l0.099,1.474l1.338,0.625l38.881,18.146l0.971,0.452l0.996-0.389l11.609-4.535l0.707-0.276L55.995,46.921
			z"/>
	</g>
	<g>
		<polyline fill="#F3F4D2" points="42.634,10.849 35.063,18.881 29.769,30.846 30.108,44.42 		"/>
		<polygon fill="#1C1C1A" points="40.814,9.134 33.244,17.166 32.95,17.478 32.777,17.869 27.482,29.834 27.255,30.348 
			27.27,30.908 27.609,44.482 32.607,44.357 32.268,30.783 32.055,31.857 37.35,19.893 36.883,20.596 44.453,12.563 		"/>
	</g>
	<g>
		<polyline fill="#F3F4D2" points="35.591,8.835 25.778,16.109 21.937,27.903 23.251,40.116 		"/>
		<polygon fill="#1C1C1A" points="34.102,6.826 24.289,14.101 23.648,14.576 23.401,15.335 19.56,27.129 19.394,27.639 
			19.451,28.171 20.766,40.384 25.736,39.849 24.422,27.636 24.313,28.678 28.155,16.884 27.268,18.118 37.08,10.843 		"/>
	</g>
	<g>
		<polyline fill="#F3F4D2" points="26.567,6.374 18.161,14.05 14.368,25.271 17.138,37.314 		"/>
		<polygon fill="#1C1C1A" points="24.882,4.528 16.476,12.204 15.999,12.639 15.793,13.249 12,24.471 11.773,25.142 11.932,25.832 
			14.701,37.875 19.574,36.754 16.805,24.711 16.736,26.072 20.529,14.851 19.847,15.896 28.253,8.22 		"/>
	</g>
	<g>
		<polygon fill="#F3F4D2" points="55.581,18.241 46.882,22.435 41.517,29.926 40.038,35.714 41.282,43.454 42.729,45.157 
			52.048,40.437 56.708,32.744 57.763,28.65 57.12,24.131 		"/>
		<path fill="#1C1C1A" d="M54.495,15.989l-8.699,4.193l-0.575,0.277l-0.371,0.519l-5.365,7.491l-0.273,0.382l-0.116,0.455
			l-1.479,5.788l-0.129,0.503l0.082,0.513l1.244,7.74l0.111,0.69l0.452,0.532l1.447,1.703l1.276,1.502l1.759-0.891l9.318-4.721
			l0.638-0.323l0.371-0.612l4.66-7.692l0.19-0.314l0.092-0.356l1.055-4.094l0.124-0.482l-0.069-0.493l-0.643-4.52l-0.021-0.142
			l-0.036-0.139L58,17.609l-0.769-2.939L54.495,15.989z M54.645,24.482l0.643,4.52l0.055-0.976l-1.055,4.094l0.282-0.671
			l-4.66,7.692l1.009-0.936L41.6,42.927l3.035,0.611l-1.447-1.703l0.563,1.223l-1.244-7.74l-0.047,1.016l1.479-5.788l-0.39,0.837
			l5.365-7.491l-0.946,0.796l8.699-4.193l-3.505-1.62l1.539,5.89L54.645,24.482z"/>
	</g>
	<g>
		<polygon fill="#F3F4D2" points="50.681,41.334 60.47,50.344 59.632,55.32 65.823,60.723 64.321,66.798 60.899,68.105 
			52.851,64.281 46.11,58.546 45.47,54.025 46.397,47.904 44.952,46.202 		"/>
		<path fill="#1C1C1A" d="M48.987,43.174l9.789,9.01l-0.771-2.255l-0.838,4.977l-0.232,1.379l1.054,0.92l6.191,5.402l-0.783-2.483
			l-1.502,6.075l1.534-1.735l-3.422,1.308l1.966,0.077l-8.049-3.824l0.547,0.354l-6.74-5.735l0.855,1.554l-0.641-4.521L47.941,54.4
			l0.928-6.121l0.171-1.126l-0.737-0.867l-1.445-1.702l-0.286,3.523l5.729-4.868L48.987,43.174z M43.047,47.82l1.445,1.702
			l-0.566-1.993l-0.928,6.121l-0.055,0.363l0.051,0.362l0.641,4.521l0.134,0.938l0.722,0.615l6.74,5.735l0.25,0.213l0.297,0.141
			l8.049,3.824l0.967,0.459l0.999-0.382l3.422-1.308l1.221-0.466l0.313-1.27l1.502-6.075l0.366-1.48l-1.149-1.003l-6.191-5.402
			l0.821,2.299l0.838-4.977l0.226-1.337l-0.997-0.918l-9.789-9.01l-1.627-1.497l-1.686,1.432l-5.729,4.868l-1.904,1.618
			L43.047,47.82z"/>
	</g>
</g>
</svg>
