<?xml version="1.0" encoding="utf-8"?>
<!-- Generator: Adobe Illustrator 12.0.0, SVG Export Plug-In . SVG Version: 6.00 Build 51448)  -->
<!DOCTYPE svg PUBLIC "-//W3C//DTD SVG 1.1//EN" "http://www.w3.org/Graphics/SVG/1.1/DTD/svg11.dtd" [
	<!ENTITY ns_svg "http://www.w3.org/2000/svg">
	<!ENTITY ns_xlink "http://www.w3.org/1999/xlink">
]>
<svg  version="1.1" id="Layer_1" xmlns="&ns_svg;" xmlns:xlink="&ns_xlink;" width="138.362" height="93.56"
	 viewBox="0 0 138.362 93.56" overflow="visible" enable-background="new 0 0 138.362 93.56" xml:space="preserve">
<g>
	<g>
		<polygon fill="#F3F4D2" points="42.335,72.762 3.454,54.616 2.542,40.996 5.608,35.191 9.509,29.743 17.063,25.456 59.179,39.253 
			61.731,50.413 60.693,56.095 58.51,61.682 53.944,68.229 		"/>
		<path fill="#1C1C1A" d="M43.393,70.496L4.512,52.351l1.437,2.099l-0.912-13.62l-0.283,1.335l3.066-5.805l-0.178,0.287l3.9-5.448
			l-0.8,0.719l7.555-4.287l-2.012,0.202L58.4,41.629l-1.659-1.818l2.553,11.16l-0.021-1.007l-1.038,5.682l0.131-0.461l-2.184,5.587
			l0.277-0.52l-4.565,6.547l1.142-0.899l-11.609,4.533L43.393,70.496z M55.995,69.658l4.565-6.547l0.17-0.243l0.107-0.276
			l2.184-5.587l0.088-0.225l0.043-0.236l1.038-5.682l0.093-0.506l-0.114-0.501l-2.553-11.16l-0.315-1.378l-1.344-0.44L17.842,23.08
			l-1.051-0.344l-0.961,0.546l-7.555,4.287l-0.479,0.271l-0.32,0.447l-3.9,5.448l-0.099,0.138l-0.079,0.149l-3.066,5.805L0,40.455
			l0.048,0.708l0.912,13.62l0.099,1.474l1.338,0.625l38.881,18.146l0.97,0.452l0.997-0.389l11.609-4.533l0.707-0.276L55.995,69.658z
			"/>
	</g>
	<g>
		<polyline fill="#F3F4D2" points="42.633,33.587 35.063,41.618 29.768,53.583 30.107,67.157 		"/>
		<polygon fill="#1C1C1A" points="40.813,31.872 33.244,39.903 32.95,40.215 32.777,40.606 27.481,52.571 27.254,53.084 
			27.269,53.646 27.608,67.22 32.606,67.095 32.267,53.521 32.054,54.595 37.35,42.63 36.883,43.333 44.452,35.302 		"/>
	</g>
	<g>
		<polyline fill="#F3F4D2" points="35.591,31.573 25.776,38.847 21.936,50.642 23.251,62.854 		"/>
		<polygon fill="#1C1C1A" points="34.103,29.564 24.288,36.838 23.646,37.313 23.399,38.072 19.559,49.867 19.393,50.377 
			19.45,50.909 20.766,63.121 25.736,62.586 24.421,50.374 24.313,51.416 28.153,39.621 27.265,40.855 37.079,33.582 		"/>
	</g>
	<g>
		<polyline fill="#F3F4D2" points="26.566,29.11 18.16,36.786 14.367,48.009 17.137,60.052 		"/>
		<polygon fill="#1C1C1A" points="24.881,27.265 16.475,34.94 15.998,35.375 15.792,35.985 11.999,47.208 11.772,47.879 
			11.931,48.569 14.7,60.612 19.573,59.491 16.804,47.448 16.735,48.81 20.528,37.587 19.846,38.632 28.252,30.956 		"/>
	</g>
	<g>
		<polygon fill="#F3F4D2" points="55.58,40.978 46.881,45.172 41.517,52.663 40.037,58.451 41.282,66.191 42.729,67.894 
			52.048,63.174 56.708,55.481 57.762,51.388 57.119,46.868 		"/>
		<path fill="#1C1C1A" d="M54.494,38.726l-8.699,4.194l-0.575,0.277l-0.371,0.52l-5.364,7.491l-0.273,0.381l-0.116,0.455
			l-1.479,5.788l-0.129,0.503l0.082,0.514l1.245,7.74l0.111,0.689l0.453,0.532l1.447,1.702l1.276,1.501l1.758-0.89l9.318-4.72
			l0.638-0.323l0.371-0.612l4.66-7.692l0.19-0.314l0.092-0.357l1.054-4.094l0.124-0.482l-0.069-0.492l-0.643-4.52l-0.021-0.142
			l-0.036-0.139l-1.539-5.891l-0.769-2.939L54.494,38.726z M54.644,47.22l0.643,4.52l0.055-0.975l-1.054,4.094l0.282-0.672
			l-4.66,7.692l1.009-0.936l-9.318,4.72l3.034,0.611l-1.447-1.702l0.564,1.222l-1.246-7.74l-0.046,1.017l1.479-5.788l-0.39,0.836
			l5.364-7.491l-0.946,0.797l8.699-4.194l-3.505-1.62L54.7,47.5L54.644,47.22z"/>
	</g>
	<g>
		<polygon fill="#F3F4D2" points="50.679,64.071 60.468,73.081 59.632,78.058 65.822,83.46 64.32,89.535 60.898,90.843 
			52.85,87.019 46.11,81.282 45.469,76.763 46.397,70.642 44.951,68.939 		"/>
		<path fill="#1C1C1A" d="M48.985,65.911l9.789,9.01l-0.772-2.254l-0.836,4.977l-0.231,1.379l1.054,0.919l6.19,5.402l-0.783-2.483
			l-1.502,6.075l1.534-1.735l-3.422,1.308l1.966,0.077l-8.049-3.824l0.547,0.354l-6.739-5.736l0.855,1.552l-0.642-4.52l-0.004,0.727
			l0.929-6.121l0.171-1.126l-0.737-0.868l-1.446-1.702l-0.286,3.524l5.728-4.868L48.985,65.911z M43.046,70.559l1.446,1.702
			l-0.566-1.994l-0.929,6.121l-0.055,0.363l0.051,0.363l0.642,4.52l0.134,0.938l0.722,0.614l6.739,5.736l0.25,0.214l0.297,0.141
			l8.049,3.824l0.967,0.459l0.999-0.382l3.422-1.308l1.221-0.466l0.313-1.27l1.502-6.075l0.366-1.48l-1.149-1.003l-6.19-5.402
			l0.822,2.298l0.836-4.977l0.224-1.336l-0.996-0.918l-9.789-9.01l-1.628-1.497l-1.685,1.432l-5.728,4.868l-1.904,1.619
			L43.046,70.559z"/>
	</g>
	<g>
		
			<rect x="49.187" y="45.086" transform="matrix(0.8998 0.4364 -0.4364 0.8998 30.5632 -18.0968)" fill="#F3F4D2" width="10.97" height="24.783"/>
		<path fill="#1C1C1A" d="M55.291,68.771l-9.87-4.787l1.158,3.34l10.814-22.299l-3.34,1.158l9.87,4.787l-1.158-3.34L51.951,69.93
			L55.291,68.771z M66.105,46.473l-9.87-4.787l-2.249-1.092l-1.091,2.25L42.081,65.143l-1.091,2.249l2.249,1.091l9.87,4.787
			l2.249,1.092l1.091-2.25l10.814-22.299l1.091-2.249L66.105,46.473z"/>
	</g>
	<g>
		
			<rect x="57.608" y="49.66" transform="matrix(0.9468 0.3218 -0.3218 0.9468 23.3272 -17.0037)" fill="#F3F4D2" width="10.969" height="24.784"/>
		<path fill="#1C1C1A" d="M65.102,73.184l-10.386-3.53l1.563,3.172l7.977-23.466l-3.172,1.563l10.385,3.53l-1.563-3.172
			L61.93,74.746L65.102,73.184z M73.077,49.718l-10.385-3.53l-2.367-0.805l-0.805,2.367l-7.977,23.466l-0.805,2.367l2.367,0.805
			l10.386,3.53l2.367,0.805l0.805-2.367L74.64,52.89l0.805-2.367L73.077,49.718z"/>
	</g>
	<g>
		
			<rect x="65.912" y="50.335" transform="matrix(0.9985 0.0547 -0.0547 0.9985 3.5411 -3.8146)" fill="#F3F4D2" width="10.971" height="24.783"/>
		<path fill="#1C1C1A" d="M76.333,72.904l-10.954-0.601l2.359,2.633l1.356-24.746l-2.633,2.359l10.953,0.6l-2.359-2.633L73.7,75.264
			L76.333,72.904z M77.688,48.157l-10.953-0.6l-2.496-0.137l-0.137,2.496l-1.356,24.746l-0.137,2.496l2.496,0.137l10.954,0.601
			l2.496,0.137l0.137-2.496l1.355-24.747l0.137-2.496L77.688,48.157z"/>
	</g>
	<g>
		
			<rect x="73.388" y="48.781" transform="matrix(0.9351 -0.3543 0.3543 0.9351 -16.5558 31.9092)" fill="#F3F4D2" width="10.971" height="24.783"/>
		<path fill="#1C1C1A" d="M87.509,68.479l-10.26,3.887l3.224,1.452L71.69,50.643l-1.452,3.224l10.259-3.887l-3.224-1.452
			l8.783,23.175L87.509,68.479z M78.726,45.304L68.467,49.19l-2.338,0.886l0.886,2.338l8.782,23.175l0.886,2.338l2.338-0.886
			l10.26-3.887l2.338-0.886l-0.886-2.338l-8.783-23.175l-0.886-2.338L78.726,45.304z"/>
	</g>
	<g>
		
			<rect x="78.976" y="45.631" transform="matrix(0.7216 -0.6923 0.6923 0.7216 -16.6556 74.6268)" fill="#F3F4D2" width="10.97" height="24.784"/>
		<path fill="#1C1C1A" d="M95.267,61.364l-7.916,7.595l3.534,0.073L73.729,51.146l-0.073,3.534l7.916-7.595l-3.534-0.073
			l17.156,17.886L95.267,61.364z M78.11,43.479l-7.916,7.595l-1.804,1.73l1.73,1.804l17.156,17.886l1.73,1.805l1.804-1.731
			l7.916-7.595l1.804-1.73l-1.73-1.804L81.645,43.552l-1.73-1.805L78.11,43.479z"/>
	</g>
	<g>
		
			<rect x="85.229" y="41.382" transform="matrix(0.8576 -0.5143 0.5143 0.8576 -14.7394 54.308)" fill="#F3F4D2" width="10.97" height="24.784"/>
		<path fill="#1C1C1A" d="M100.506,59.437l-9.408,5.642l3.43,0.858L81.78,44.682l-0.857,3.43l9.408-5.643l-3.43-0.857l12.747,21.256
			L100.506,59.437z M87.759,38.182l-9.408,5.643l-2.144,1.285l1.286,2.145L90.24,68.509l1.285,2.144l2.145-1.285l9.408-5.642
			l2.144-1.286l-1.286-2.145L91.188,39.039l-1.285-2.144L87.759,38.182z"/>
	</g>
	<g>
		
			<rect x="92.783" y="37.095" transform="matrix(0.8576 -0.5143 0.5143 0.8576 -11.4592 57.5823)" fill="#F3F4D2" width="10.97" height="24.784"/>
		<path fill="#1C1C1A" d="M108.06,55.149l-9.408,5.642l3.43,0.858L89.334,40.395l-0.857,3.43l9.408-5.643l-3.43-0.857l12.747,21.256
			L108.06,55.149z M95.313,33.895l-9.408,5.643l-2.144,1.285l1.286,2.145l12.747,21.255l1.285,2.144l2.145-1.285l9.408-5.642
			l2.144-1.286l-1.286-2.145L98.742,34.752l-1.285-2.144L95.313,33.895z"/>
	</g>
	<g>
		
			<rect x="96.77" y="32.376" transform="matrix(0.5585 -0.8295 0.8295 0.5585 8.0143 104.5908)" fill="#F3F4D2" width="10.97" height="24.783"/>
		<path fill="#1C1C1A" d="M113.522,45.741l-6.126,9.1l3.471-0.678L90.31,40.322l0.678,3.47l6.125-9.1l-3.471,0.679L114.2,49.212
			L113.522,45.741z M92.964,31.9L86.839,41l-1.396,2.074l2.073,1.396l20.558,13.841l2.074,1.396l1.396-2.073l6.126-9.1l1.396-2.074
			l-2.073-1.396L96.435,31.223l-2.074-1.396L92.964,31.9z"/>
	</g>
	<g>
		
			<rect x="100.763" y="25.781" transform="matrix(0.2858 -0.9583 0.9583 0.2858 39.3008 129.0798)" fill="#F3F4D2" width="10.971" height="24.784"/>
		<path fill="#1C1C1A" d="M117.296,35.745l-3.136,10.514l3.11-1.681l-23.749-7.087l1.681,3.11l3.136-10.512l-3.11,1.681
			l23.749,7.085L117.296,35.745z M93.547,28.66l-3.136,10.512l-0.715,2.396l2.396,0.715l23.749,7.087l2.396,0.715l0.715-2.396
			l3.136-10.514l0.715-2.396l-2.396-0.715l-23.749-7.085l-2.396-0.715L93.547,28.66z"/>
	</g>
	<g>
		<polygon fill="#F3F4D2" points="106.683,34.606 96.375,28.438 86.695,14.536 100.317,2.961 112.104,8.673 112.119,15.593 
			101.725,14.027 101.646,22.093 106.352,24.491 		"/>
		<path fill="#1C1C1A" d="M107.967,32.461l-10.308-6.169l0.768,0.717l-9.68-13.901l-0.433,3.334l13.622-11.575l-2.709,0.345
			l11.786,5.712l-1.41-2.244l0.016,6.92l2.872-2.478l-10.395-1.565l-2.844-0.429l-0.028,2.876l-0.078,8.065l-0.015,1.549
			l1.379,0.703l4.705,2.398l-1.363-2.146l0.331,10.115L107.967,32.461z M107.487,22.264l-4.705-2.398l1.364,2.252l0.078-8.065
			l-2.872,2.447l10.395,1.565l2.879,0.434l-0.007-2.911l-0.016-6.92L114.6,7.104l-1.406-0.682l-11.786-5.712L99.94,0l-1.242,1.056
			L85.076,12.631l-1.729,1.471l1.297,1.863l9.68,13.901l0.307,0.44l0.461,0.276l10.308,6.169l3.933,2.354l-0.149-4.581
			l-0.331-10.115l-0.049-1.475L107.487,22.264z"/>
	</g>
	<g>
		<polygon fill="#F3F4D2" points="107.513,35.422 118.991,38.969 135.801,36.883 135.311,19.012 123.185,14.062 118.029,18.673 
			126.139,25.36 120.189,30.807 115.26,28.91 		"/>
		<path fill="#1C1C1A" d="M106.774,37.811l11.479,3.547l0.514,0.158l0.532-0.066l16.81-2.086l2.254-0.279l-0.063-2.27l-0.49-17.871
			l-0.045-1.63l-1.509-0.616l-12.126-4.95l-1.447-0.591l-1.165,1.042l-5.155,4.611l-2.169,1.94l2.245,1.852l8.109,6.688
			l-0.098-3.772l-5.949,5.446l2.586-0.489l-4.93-1.896l-1.377-0.53l-1.129,0.949l-7.747,6.512l-3.509,2.949L106.774,37.811z
			 M114.362,31.243l4.93,1.896l1.444,0.556l1.142-1.045l5.949-5.446l2.121-1.942l-2.219-1.83l-8.109-6.688l0.076,3.792l5.155-4.611
			l-2.612,0.451l12.126,4.95l-1.554-2.246l0.49,17.871l2.191-2.55l-16.81,2.086l1.046,0.093l-11.479-3.547l0.87,4.303l7.747-6.512
			L114.362,31.243z"/>
	</g>
</g>
</svg>
