<?xml version="1.0" encoding="utf-8"?>
<!-- Generator: Adobe Illustrator 12.0.0, SVG Export Plug-In . SVG Version: 6.00 Build 51448)  -->
<!DOCTYPE svg PUBLIC "-//W3C//DTD SVG 1.1//EN" "http://www.w3.org/Graphics/SVG/1.1/DTD/svg11.dtd" [
	<!ENTITY ns_svg "http://www.w3.org/2000/svg">
	<!ENTITY ns_xlink "http://www.w3.org/1999/xlink">
]>
<svg  version="1.1" id="Layer_1" xmlns="&ns_svg;" xmlns:xlink="&ns_xlink;" width="196.022" height="65.141"
	 viewBox="0 0 196.022 65.141" overflow="visible" enable-background="new 0 0 196.022 65.141" xml:space="preserve">
<g>
	<g>
		<path fill="none" d="M1.501,17.592c5,2,11,3,17,4"/>
		<path d="M0.005,20.184c5.475,2.084,11.245,3.038,17,4c1.072,0.179,2.752-5.224,2.992-5.184c-5.755-0.961-11.525-1.915-17-4
			C2.3,14.734-0.128,20.133,0.005,20.184L0.005,20.184z"/>
	</g>
	<g>
		<path fill="none" d="M32.501,47.592c-1,8-9,11-15,15"/>
		<path d="M30.99,50.051c-0.276,1.749,0.053,1.466-1.314,2.79c-1.086,1.053-2.35,1.923-3.601,2.765
			c-2.34,1.575-4.839,2.903-7.199,4.448c-0.886,0.579-1.541,2.194-2.021,3.083c-0.102,0.188-0.989,2.165-0.727,1.993
			c4.03-2.636,8.487-4.72,11.838-8.262c2.927-3.094,5.38-7.512,6.048-11.735c0.042-0.266-1.239,1.423-1.364,1.626
			C32.069,47.702,31.168,48.925,30.99,50.051L30.99,50.051z"/>
	</g>
	<g>
		<path fill="none" d="M167.501,12.592c8-6,17-7,26-10"/>
		<path d="M166.127,15.13c7.79-5.523,16.969-7.085,25.878-9.946c1.627-0.523,1.94-4.846,2.992-5.184
			c-9.007,2.894-18.258,4.477-26.122,10.054C167.499,11.029,166.841,14.624,166.127,15.13L166.127,15.13z"/>
	</g>
	<g>
		<path fill="none" d="M177.501,36.592c5,4,11,8,17,11"/>
		<path d="M176.005,39.184c5.317,4.2,10.962,7.918,17,11c0.488,0.249,3.306-5.023,2.992-5.184c-6.038-3.081-11.683-6.799-17-11
			C178.864,33.895,175.44,38.736,176.005,39.184L176.005,39.184z"/>
	</g>
</g>
</svg>
