<?xml version="1.0" encoding="utf-8"?>
<!-- Generator: Adobe Illustrator 12.0.0, SVG Export Plug-In . SVG Version: 6.00 Build 51448)  -->
<!DOCTYPE svg PUBLIC "-//W3C//DTD SVG 1.1//EN" "http://www.w3.org/Graphics/SVG/1.1/DTD/svg11.dtd" [
	<!ENTITY ns_svg "http://www.w3.org/2000/svg">
	<!ENTITY ns_xlink "http://www.w3.org/1999/xlink">
]>
<svg  version="1.1" id="Layer_1" xmlns="&ns_svg;" xmlns:xlink="&ns_xlink;" width="86.117" height="40.549"
	 viewBox="0 0 86.117 40.549" overflow="visible" enable-background="new 0 0 86.117 40.549" xml:space="preserve">
<g>
	<g>
		<polygon fill="#F3F4D2" points="9.052,6.152 2.516,18.322 2.628,22.886 5.839,31.731 10.459,37.931 15.416,38.044 50.97,31.679 
			53.73,28.129 54.182,22.946 74.69,17.82 76.437,21.539 81.79,19.681 83.48,16.356 81.001,5.313 76.72,3.284 73.114,7.396 
			72.775,9.819 51.929,11.509 48.154,4.747 42.296,2.55 		"/>
		<path fill="#1C1C1A" d="M6.85,4.97L0.313,17.14L0,17.723l0.017,0.661l0.112,4.563l0.01,0.408l0.139,0.383l3.211,8.846l0.126,0.347
			l0.22,0.295l4.62,6.199l0.729,0.978l1.22,0.027l4.957,0.113l0.25,0.006l0.247-0.044L51.41,34.14l0.944-0.169l0.589-0.757
			l2.761-3.55l0.453-0.583l0.063-0.735l0.451-5.183l-1.884,2.209l20.509-5.126l-2.869-1.363l1.746,3.719l0.956,2.037l2.127-0.738
			l5.354-1.858l0.951-0.33l0.457-0.898l1.69-3.324l0.408-0.802l-0.197-0.879L83.44,4.765l-0.268-1.189l-1.102-0.521L77.79,1.024
			l-1.706-0.808L74.84,1.636l-3.605,4.112l-0.492,0.563L70.639,7.05L70.3,9.473l2.273-2.146L51.727,9.017l2.385,1.273l-3.774-6.762
			l-0.446-0.8l-0.858-0.322l-5.858-2.197L42.617,0l-0.591,0.064L8.782,3.667l-1.31,0.142L6.85,4.97z M41.418,4.891l5.858,2.197
			l-1.305-1.122l3.774,6.762l0.783,1.403l1.602-0.13l20.847-1.689l1.996-0.162l0.277-1.983l0.339-2.423l-0.596,1.302L78.6,4.933
			l-2.95,0.61l4.281,2.028L78.562,5.86l2.479,11.044l0.211-1.681l-1.69,3.324l1.408-1.229l-5.354,1.858l3.083,1.299l-1.746-3.719
			l-0.874-1.861l-1.995,0.498l-20.509,5.126l-1.729,0.433l-0.154,1.776l-0.451,5.183l0.517-1.318l-2.761,3.55l1.533-0.926
			l-35.554,6.365l0.497-0.038l-4.957-0.113l1.948,1.005l-4.62-6.199l0.345,0.641l-3.21-8.846l0.148,0.792l-0.112-4.563l-0.296,1.244
			l6.535-12.17L9.321,8.638l33.244-3.603L41.418,4.891z"/>
	</g>
	<g>
		<polygon fill="#F3F4D2" points="15.813,7.506 12.039,16.858 16.714,21.31 17.052,25.479 21.84,30.099 34.856,26.552 
			37.955,16.184 33.393,12.634 34.125,4.577 		"/>
		<path fill="#1C1C1A" d="M13.494,6.57l-3.773,9.353l-0.636,1.575l1.23,1.171l4.675,4.451l-0.769-1.608l0.338,4.169l0.076,0.941
			l0.68,0.655l4.788,4.62l1.022,0.986l1.371-0.373l13.017-3.547l1.34-0.365l0.398-1.331l3.099-10.368l0.489-1.639l-1.35-1.051
			l-4.563-3.549l0.954,2.199l0.732-8.057l0.292-3.203L33.73,2.108L15.418,5.037l-1.396,0.224L13.494,6.57z M31.635,4.351
			l-0.732,8.057l-0.123,1.36l1.078,0.839l4.563,3.55l-0.86-2.688l-3.099,10.368l1.738-1.696l-13.017,3.547l2.394,0.613l-4.788-4.62
			l0.756,1.597l-0.338-4.169l-0.077-0.95l-0.691-0.658l-4.675-4.451l0.595,2.746l3.773-9.353l-1.924,1.533L34.52,7.046L31.635,4.351
			z"/>
	</g>
</g>
</svg>
