<?xml version="1.0" encoding="utf-8"?>
<!-- Generator: Adobe Illustrator 12.0.0, SVG Export Plug-In . SVG Version: 6.00 Build 51448)  -->
<!DOCTYPE svg PUBLIC "-//W3C//DTD SVG 1.1//EN" "http://www.w3.org/Graphics/SVG/1.1/DTD/svg11.dtd" [
	<!ENTITY ns_svg "http://www.w3.org/2000/svg">
	<!ENTITY ns_xlink "http://www.w3.org/1999/xlink">
]>
<svg  version="1.1" id="Layer_1" xmlns="&ns_svg;" xmlns:xlink="&ns_xlink;" width="95.163" height="52.361"
	 viewBox="0 0 95.163 52.361" overflow="visible" enable-background="new 0 0 95.163 52.361" xml:space="preserve">
<g>
	<g>
		<polygon fill="#F3F4D2" points="17.662,12.787 17.662,49.76 38.145,48.947 77.389,44.07 74.949,10.349 55.447,2.629 		"/>
		<path fill="#1C1C1A" d="M15.162,12.787V49.76v2.602l2.6-0.104l20.481-0.813l0.105-0.004l0.104-0.014l39.244-4.877l2.356-0.292
			l-0.172-2.369l-2.439-33.722l-0.113-1.565l-1.46-0.578l-19.502-7.72L55.598,0l-0.8,0.215L17.014,10.373l-1.852,0.497V12.787z
			 M54.527,4.953l19.502,7.72l-1.573-2.144l2.439,33.722l2.185-2.661l-39.244,4.877l0.21-0.018l-20.483,0.813l2.6,2.498V12.787
			l-1.852,2.414L56.097,5.043L54.527,4.953z"/>
	</g>
	<g>
		<polyline fill="#F3F4D2" points="19.287,49.353 60.729,38.383 55.854,4.254 		"/>
		<polygon fill="#1C1C1A" points="19.927,51.77 61.368,40.8 63.518,40.23 63.203,38.029 58.328,3.9 53.379,4.607 58.254,38.736 
			60.089,35.966 18.647,46.936 		"/>
	</g>
	<g>
		<line fill="#F3F4D2" x1="78.607" y1="44.07" x2="60.729" y2="38.383"/>
		
			<rect x="60.287" y="38.726" transform="matrix(0.9529 0.3031 -0.3031 0.9529 15.7758 -19.1795)" fill="#1C1C1A" width="18.762" height="5.001"/>
	</g>
	<g>
		<polyline fill="#F3F4D2" points="16.85,13.193 9.535,18.068 11.973,22.537 6.691,27.818 14.006,29.444 6.285,36.352 
			17.256,36.758 		"/>
		<polygon fill="#1C1C1A" points="15.463,11.113 8.148,15.988 6.246,17.257 7.341,19.266 9.777,23.734 10.205,20.77 4.924,26.051 
			1.705,29.271 6.149,30.259 13.463,31.885 12.339,27.581 4.619,34.488 0,38.62 6.193,38.85 17.163,39.256 17.348,34.26 
			6.378,33.854 7.953,38.215 15.673,31.308 19.302,28.061 14.549,27.004 7.234,25.378 8.46,29.586 13.74,24.305 15.063,22.982 
			14.168,21.34 11.73,16.871 10.922,20.148 18.236,15.273 		"/>
	</g>
	<g>
		<polygon fill="#F3F4D2" points="55.447,3.848 66.012,9.941 61.949,14.412 66.822,16.849 65.197,23.756 94.045,23.756 
			81.855,17.661 85.105,13.599 74.137,10.145 		"/>
		<path fill="#1C1C1A" d="M54.198,6.014l10.564,6.094L64.161,8.26l-4.063,4.471l-2.219,2.442l2.951,1.476l4.873,2.437l-1.315-2.809
			l-1.625,6.907l-0.723,3.072h3.156h28.848l1.118-4.736l-12.189-6.095l0.834,3.798l3.25-4.063l2.28-2.85l-3.481-1.097L74.888,7.76
			c0.047,0.016-18.643-6.281-18.643-6.281L54.198,6.014z M73.386,12.529l10.969,3.454l-1.201-3.946l-3.25,4.063l-1.932,2.415
			l2.766,1.383l12.189,6.095l1.118-4.736H65.197l2.434,3.072l1.625-6.907l0.453-1.924l-1.769-0.885l-4.873-2.437l0.732,3.918
			l4.063-4.471l2.086-2.297l-2.688-1.551L56.696,1.682l-2.047,4.535C54.649,6.217,73.339,12.514,73.386,12.529z"/>
	</g>
	<g>
		<line fill="#F3F4D2" x1="28.668" y1="26.6" x2="45.123" y2="21.725"/>
		
			<rect x="28.314" y="21.662" transform="matrix(-0.9588 0.2841 -0.2841 -0.9588 79.1346 36.8485)" fill="#1C1C1A" width="17.162" height="5.001"/>
	</g>
</g>
</svg>
