<?xml version="1.0" encoding="utf-8"?>
<!-- Generator: Adobe Illustrator 12.0.0, SVG Export Plug-In . SVG Version: 6.00 Build 51448)  -->
<!DOCTYPE svg PUBLIC "-//W3C//DTD SVG 1.1//EN" "http://www.w3.org/Graphics/SVG/1.1/DTD/svg11.dtd" [
	<!ENTITY ns_svg "http://www.w3.org/2000/svg">
	<!ENTITY ns_xlink "http://www.w3.org/1999/xlink">
]>
<svg  version="1.1" id="Layer_1" xmlns="&ns_svg;" xmlns:xlink="&ns_xlink;" width="18.308" height="87.447"
	 viewBox="0 0 18.308 87.447" overflow="visible" enable-background="new 0 0 18.308 87.447" xml:space="preserve">
<g>
	<polyline fill="none" points="1.535,1.865 17.184,44.94 1.031,85.861 	"/>
	<path fill="#EC605D" d="M0.458,3.73c5.203,14.323,10.407,28.646,15.61,42.969c0.106,0.294-1.593,4.063-2.032,5.178
		c-1.862,4.717-3.724,9.434-5.586,14.15c-2.814,7.13-5.629,14.26-8.443,21.391c-0.134,0.339,1.732-2.312,2.049-3.113
		c2.814-7.13,5.628-14.26,8.442-21.39c1.862-4.717,3.724-9.434,5.586-14.15c0.382-0.967,2.569-4.608,2.177-5.689
		C13.044,28.717,7.828,14.358,2.612,0C2.827,0.593,0.073,2.671,0.458,3.73L0.458,3.73z"/>
</g>
</svg>
