<?xml version="1.0" encoding="utf-8"?>
<!-- Generator: Adobe Illustrator 12.0.0, SVG Export Plug-In . SVG Version: 6.00 Build 51448)  -->
<!DOCTYPE svg PUBLIC "-//W3C//DTD SVG 1.1//EN" "http://www.w3.org/Graphics/SVG/1.1/DTD/svg11.dtd" [
	<!ENTITY ns_svg "http://www.w3.org/2000/svg">
	<!ENTITY ns_xlink "http://www.w3.org/1999/xlink">
]>
<svg  version="1.1" id="Layer_1" xmlns="&ns_svg;" xmlns:xlink="&ns_xlink;" width="119.997" height="27.723"
	 viewBox="0 0 119.997 27.723" overflow="visible" enable-background="new 0 0 119.997 27.723" xml:space="preserve">
<g>
	<polyline fill="none" points="1.503,3.301 61.5,25.097 118.497,2.598 	"/>
	<path fill="#EC605D" d="M0.003,5.898c19.973,7.257,39.946,14.513,59.92,21.769c1.356,0.492,6.361-2.453,7.631-2.954
		c6.671-2.634,13.343-5.268,20.015-7.9c9.809-3.873,19.619-7.744,29.428-11.617c1.646-0.65,1.875-4.752,3-5.195
		c-9.809,3.871-19.619,7.744-29.428,11.615c-6.451,2.547-12.9,5.093-19.35,7.639c-1.375,0.543-6.83,3.75-8.296,3.217
		C42.95,15.215,22.976,7.959,3.003,0.703C2.273,0.438-0.104,5.86,0.003,5.898L0.003,5.898z"/>
</g>
</svg>
