<?xml version="1.0" encoding="utf-8"?>
<!-- Generator: Adobe Illustrator 12.0.0, SVG Export Plug-In . SVG Version: 6.00 Build 51448)  -->
<!DOCTYPE svg PUBLIC "-//W3C//DTD SVG 1.1//EN" "http://www.w3.org/Graphics/SVG/1.1/DTD/svg11.dtd" [
	<!ENTITY ns_svg "http://www.w3.org/2000/svg">
	<!ENTITY ns_xlink "http://www.w3.org/1999/xlink">
]>
<svg  version="1.1" id="Layer_1" xmlns="&ns_svg;" xmlns:xlink="&ns_xlink;" width="18.346" height="87.451"
	 viewBox="0 0 18.346 87.451" overflow="visible" enable-background="new 0 0 18.346 87.451" xml:space="preserve">
<g>
	<polyline fill="none" points="16.724,1.589 1.075,44.665 17.229,85.585 	"/>
	<path fill="#EC605D" d="M15.7,3.146C10.487,17.495,5.274,31.844,0.062,46.194c-0.417,1.147,1.402,4.046,1.81,5.078
		c1.823,4.62,3.647,9.24,5.471,13.86c2.937,7.439,5.873,14.879,8.81,22.318c-0.219-0.555,2.56-2.704,2.154-3.73
		c-2.692-6.82-5.385-13.641-8.076-20.461c-1.896-4.804-3.793-9.607-5.689-14.411c-0.428-1.085-2.499-5.578-2.402-5.847
		c5.204-14.322,10.407-28.646,15.61-42.969C17.878-0.323,15.994,2.336,15.7,3.146L15.7,3.146z"/>
</g>
</svg>
