<?xml version="1.0" encoding="utf-8"?>
<!-- Generator: Adobe Illustrator 12.0.0, SVG Export Plug-In . SVG Version: 6.00 Build 51448)  -->
<!DOCTYPE svg PUBLIC "-//W3C//DTD SVG 1.1//EN" "http://www.w3.org/Graphics/SVG/1.1/DTD/svg11.dtd" [
	<!ENTITY ns_svg "http://www.w3.org/2000/svg">
	<!ENTITY ns_xlink "http://www.w3.org/1999/xlink">
]>
<svg  version="1.1" id="Layer_1" xmlns="&ns_svg;" xmlns:xlink="&ns_xlink;" width="84.858" height="65.021"
	 viewBox="0 0 84.858 65.021" overflow="visible" enable-background="new 0 0 84.858 65.021" xml:space="preserve">
<g>
	<g>
		<polygon fill="#1C1C1A" points="40.604,35.401 38.574,50.435 38.316,52.343 40.095,53.079 54.315,58.971 56.229,54.352 
			42.009,48.46 43.529,51.104 45.56,36.071 		"/>
	</g>
	<g>
		<polygon fill="#1C1C1A" points="19.971,27.621 11.438,43.061 10.493,44.77 11.923,46.1 17.815,51.584 21.222,47.924 
			15.329,42.439 15.814,45.479 24.348,30.039 		"/>
	</g>
	<g>
		<polygon fill="#F3F4D2" points="21.752,2.826 9.563,9.328 7.125,13.188 4.892,22.329 5.297,30.049 9.361,32.893 42.473,47.316 
			46.739,45.895 49.99,41.831 69.898,48.941 69.289,53.005 74.774,54.426 78.024,52.598 82.087,42.035 79.648,37.971 74.368,39.393 
			72.742,41.222 54.459,31.064 55.068,23.346 51.412,18.266 		"/>
		<path fill="#1C1C1A" d="M20.575,0.62L8.387,7.122L7.804,7.434L7.45,7.993l-2.438,3.859l-0.219,0.345l-0.097,0.396l-2.233,9.142
			l-0.087,0.357l0.02,0.367l0.405,7.72l0.063,1.219l0.999,0.699l4.064,2.844l0.206,0.144l0.229,0.1l33.111,14.424l0.879,0.383
			l0.909-0.303l4.267-1.422l0.701-0.233l0.461-0.577l3.251-4.063l-2.793,0.793l19.908,7.11l-1.632-2.726l-0.609,4.063l-0.334,2.227
			l2.18,0.564l5.485,1.421l0.975,0.253L76,56.604l3.25-1.828l0.784-0.441l0.323-0.84l4.063-10.563l0.438-1.138l-0.628-1.046
			l-2.438-4.064l-0.971-1.619l-1.823,0.491l-5.28,1.422l-0.722,0.194L72.5,37.731l-1.626,1.829l3.082-0.524L55.673,28.879
			l1.278,2.382l0.609-7.719l0.072-0.913l-0.535-0.743l-3.656-5.08l-0.348-0.483l-0.527-0.274L22.906,0.608L21.737,0L20.575,0.62z
			 M49.383,19.726l3.656,5.08l-0.463-1.656l-0.609,7.719L51.84,32.47l1.405,0.78l18.283,10.157l1.751,0.973l1.331-1.497l1.626-1.829
			l-1.218,0.753l5.28-1.422l-2.794-1.128l2.438,4.064l-0.189-2.184L75.691,51.7l1.107-1.281l-3.25,1.828l1.853-0.241l-5.485-1.421
			l1.846,2.791l0.609-4.063l0.305-2.034l-1.937-0.691l-19.908-7.11l-1.679-0.6l-1.114,1.393l-3.251,4.063l1.162-0.811l-4.267,1.422
			l1.788,0.08L10.359,30.601l0.436,0.243L6.73,28l1.063,1.918l-0.405-7.72L7.32,22.923l2.233-9.142l-0.315,0.741l2.438-3.859
			l-0.937,0.871l12.188-6.502l-2.331,0.012l29.66,15.439L49.383,19.726z"/>
	</g>
	<g>
		<polygon fill="#F3F4D2" points="26.628,7.702 18.3,13.391 19.721,19.688 17.69,23.346 19.111,29.846 31.909,34.112 40.238,27.204 
			38.411,21.72 43.489,15.422 		"/>
		<path fill="#1C1C1A" d="M25.218,5.638l-8.328,5.688l-1.402,0.958l0.374,1.656l1.421,6.297l0.253-1.763l-2.03,3.658l-0.458,0.825
			l0.201,0.922l1.421,6.5l0.304,1.388l1.348,0.45l12.798,4.267l1.318,0.438l1.068-0.887l8.329-6.908l1.316-1.092l-0.54-1.622
			l-1.827-5.484l-0.426,2.359l5.078-6.298l2.019-2.504l-2.924-1.339l-16.861-7.72l-1.285-0.588L25.218,5.638z M41.543,13.853
			l-5.078,6.298l-0.857,1.063l0.432,1.296l1.827,5.484l0.776-2.714l-8.329,6.908L32.7,31.74l-12.798-4.267l1.651,1.838l-1.421-6.5
			l-0.257,1.747l2.03-3.658l0.463-0.833l-0.21-0.93l-1.421-6.297l-1.028,2.614l8.328-5.688l-2.451,0.209l16.861,7.72L41.543,13.853z
			"/>
	</g>
	<g>
		<polygon fill="#1C1C1A" points="9.388,32.009 1.059,43.181 0,44.6 0.987,46.068 10.536,60.289 14.687,57.502 5.138,43.281 
			5.066,46.169 13.396,34.997 		"/>
	</g>
	<g>
		<polygon fill="#1C1C1A" points="30.144,41.815 24.253,52.175 23.685,53.173 24.072,54.254 27.931,65.021 32.638,63.334 
			28.779,52.566 28.599,54.646 34.489,44.286 		"/>
	</g>
</g>
</svg>
