<?xml version="1.0" encoding="utf-8"?>
<!-- Generator: Adobe Illustrator 12.0.0, SVG Export Plug-In . SVG Version: 6.00 Build 51448)  -->
<!DOCTYPE svg PUBLIC "-//W3C//DTD SVG 1.1//EN" "http://www.w3.org/Graphics/SVG/1.1/DTD/svg11.dtd" [
	<!ENTITY ns_svg "http://www.w3.org/2000/svg">
	<!ENTITY ns_xlink "http://www.w3.org/1999/xlink">
]>
<svg  version="1.1" id="Layer_1" xmlns="&ns_svg;" xmlns:xlink="&ns_xlink;" width="95.55" height="70.061"
	 viewBox="0 0 95.55 70.061" overflow="visible" enable-background="new 0 0 95.55 70.061" xml:space="preserve">
<g>
	<g>
		<polygon fill="#F3F4D2" points="18.283,11.862 17.387,48.823 37.882,48.509 77.231,44.588 75.613,10.816 56.306,2.625 		"/>
		<path fill="#1C1C1A" d="M15.784,11.802l-0.896,36.961l-0.063,2.601l2.601-0.04l20.495-0.314l0.105-0.002l0.104-0.011l39.35-3.921
			l2.362-0.235l-0.113-2.372L78.11,10.696l-0.075-1.568L76.59,8.515L57.282,0.323L56.52,0l-0.804,0.195L17.693,9.433L15.83,9.886
			L15.784,11.802z M55.329,4.927l19.308,8.191l-1.521-2.182l1.618,33.771l2.249-2.607l-39.35,3.921l0.21-0.013l-20.495,0.314
			l2.537,2.561l0.896-36.961l-1.909,2.369l38.022-9.237L55.329,4.927z"/>
	</g>
	<g>
		<polyline fill="#F3F4D2" points="19.02,48.457 60.717,38.497 56.672,4.259 		"/>
		<polygon fill="#1C1C1A" points="19.601,50.889 61.298,40.929 63.46,40.412 63.199,38.204 59.154,3.966 54.189,4.552 58.234,38.79 
			60.136,36.065 18.438,46.025 		"/>
	</g>
	<g>
		<line fill="#F3F4D2" x1="78.45" y1="44.618" x2="60.717" y2="38.497"/>
		
			<rect x="60.203" y="39.058" transform="matrix(0.9453 0.3263 -0.3263 0.9453 17.3677 -20.4295)" fill="#1C1C1A" width="18.76" height="5"/>
	</g>
	<g>
		<polyline fill="#F3F4D2" points="17.462,12.248 10.032,16.944 12.36,21.472 6.952,26.624 14.224,28.427 6.339,35.144 
			17.296,35.816 		"/>
		<polygon fill="#1C1C1A" points="16.126,10.135 8.696,14.831 6.763,16.054 7.809,18.088 10.137,22.615 10.636,19.661 5.228,24.813 
			1.931,27.955 6.351,29.051 13.622,30.854 12.603,26.523 4.718,33.24 0,37.259 6.186,37.639 17.143,38.312 17.449,33.321 
			6.492,32.648 7.96,37.047 15.845,30.33 19.552,27.172 14.825,26 7.554,24.197 8.677,28.434 14.085,23.281 15.438,21.991 
			14.584,20.328 12.256,15.801 11.368,19.058 18.798,14.361 		"/>
	</g>
	<g>
		<polygon fill="#F3F4D2" points="56.275,3.844 66.688,10.193 62.518,14.563 67.333,17.118 65.54,23.983 94.378,24.684 
			82.342,18.295 85.688,14.312 74.806,10.594 		"/>
		<path fill="#1C1C1A" d="M54.974,5.979l10.412,6.35l-0.507-3.86l-4.17,4.369l-2.278,2.387l2.915,1.547l4.815,2.556l-1.247-2.84
			l-1.793,6.865l-0.798,3.055l3.156,0.076l28.838,0.7l1.232-4.707l-12.036-6.389l0.742,3.816l3.347-3.983l2.348-2.794l-3.453-1.181
			L75.614,8.228c0.047,0.018-18.483-6.732-18.483-6.732L54.974,5.979z M73.997,12.96l10.883,3.718l-1.105-3.975l-3.347,3.983
			l-1.988,2.367l2.73,1.449l12.036,6.389l1.232-4.707l-28.838-0.7l2.358,3.131l1.793-6.865l0.5-1.913l-1.747-0.927l-4.815-2.556
			l0.637,3.934l4.17-4.369l2.143-2.244l-2.649-1.616l-10.412-6.35L55.42,6.192C55.42,6.192,73.95,12.942,73.997,12.96z"/>
	</g>
	<g>
		<polygon fill="#F3F4D2" points="29.824,47.095 30.464,62.554 21.622,66.81 41.113,67.485 44.48,46.027 		"/>
		<path fill="#1C1C1A" d="M27.326,47.198l0.64,15.459l1.414-2.356l-8.842,4.256l0.997,4.751l19.491,0.676l2.214,0.077l0.343-2.188
			l3.367-21.458l0.488-3.109l-3.14,0.229l-14.656,1.067l-2.416,0.176L27.326,47.198z M42.011,45.64l-3.367,21.458l2.557-2.11
			l-19.491-0.676l0.997,4.751l8.842-4.256l1.481-0.714l-0.067-1.643l-0.64-15.459l-2.316,2.597l14.656-1.067L42.011,45.64z"/>
	</g>
	<g>
		<polygon fill="#F3F4D2" points="51.053,43.139 52.809,62.894 45.81,66.584 68.179,65.907 69.905,45.021 60.697,39.31 		"/>
		<path fill="#1C1C1A" d="M48.563,43.36l1.756,19.755l1.324-2.434l-6.999,3.691l1.241,4.71l22.369-0.677l2.232-0.067l0.184-2.226
			l1.727-20.887l0.126-1.524l-1.3-0.807l-9.208-5.711l-1.069-0.663l-1.171,0.465l-9.645,3.829l-1.732,0.688L48.563,43.36z
			 M59.38,41.435l9.208,5.711l-1.174-2.331l-1.727,20.887l2.416-2.293l-22.369,0.677l1.241,4.71l6.999-3.69l1.472-0.775
			l-0.147-1.657l-1.756-19.755l-1.567,2.545l9.645-3.829L59.38,41.435z"/>
	</g>
	<g>
		<polygon fill="#F3F4D2" points="28.312,25.72 34.601,17.745 46.499,21.489 38.312,30.841 		"/>
		<path fill="#1C1C1A" d="M30.274,27.268l6.289-7.975l-2.713,0.837l11.898,3.744l-1.131-4.031l-8.188,9.352l3.021-0.579l-10-5.121
			L30.274,27.268z M40.192,32.487l8.188-9.352l2.523-2.882l-3.654-1.149L35.351,15.36l-1.645-0.518l-1.068,1.354l-6.289,7.975
			l-1.883,2.387l2.706,1.387l10,5.121l1.736,0.889L40.192,32.487z"/>
	</g>
	<g>
		<line fill="#F3F4D2" x1="31.132" y1="60.131" x2="41.089" y2="60.17"/>
		<rect x="31.132" y="57.65" transform="matrix(-1 -0.0039 0.0039 -1 71.9845 120.442)" fill="#1C1C1A" width="9.957" height="5"/>
	</g>
	<g>
		<line fill="#F3F4D2" x1="52.501" y1="58.821" x2="68.343" y2="59.206"/>
		
			<rect x="52.499" y="56.514" transform="matrix(-0.9997 -0.0243 0.0243 -0.9997 119.393 119.4771)" fill="#1C1C1A" width="15.846" height="5"/>
	</g>
	<g>
		<line fill="#F3F4D2" x1="35.488" y1="23.05" x2="36.661" y2="24.907"/>
		
			<rect x="34.976" y="21.478" transform="matrix(-0.5339 -0.8455 0.8455 -0.5339 35.0605 67.2835)" fill="#1C1C1A" width="2.197" height="5.001"/>
	</g>
</g>
</svg>
