<?xml version="1.0" encoding="utf-8"?>
<!-- Generator: Adobe Illustrator 12.0.0, SVG Export Plug-In . SVG Version: 6.00 Build 51448)  -->
<!DOCTYPE svg PUBLIC "-//W3C//DTD SVG 1.1//EN" "http://www.w3.org/Graphics/SVG/1.1/DTD/svg11.dtd" [
	<!ENTITY ns_svg "http://www.w3.org/2000/svg">
	<!ENTITY ns_xlink "http://www.w3.org/1999/xlink">
]>
<svg  version="1.1" id="Layer_1" xmlns="&ns_svg;" xmlns:xlink="&ns_xlink;" width="204.06" height="89.198"
	 viewBox="0 0 204.06 89.198" overflow="visible" enable-background="new 0 0 204.06 89.198" xml:space="preserve">
<g>
	<g>
		<path fill="none" d="M43.03,51.751c-3.128-11.29-27.377-30.478-29.19-8.253c26.942,2.299,0.578-19.491-12.342-23.683"/>
		<path d="M44.526,49.16c-2.508-8.093-10.876-16.021-19.033-18.2c-8.329-2.225-12.484,8.539-13.165,14.998
			c0.005,0.044,0.01,0.088,0.016,0.132c4.059,0.289,9.152,0.824,11.876-2.794c1.769-2.35,3.423-5.126,2.344-8.054
			c-1.582-4.295-6.282-7.721-9.77-10.364c-4.169-3.159-8.839-5.948-13.8-7.653c-0.762-0.262-3.066,5.157-2.992,5.184
			c6.88,2.363,13.24,6.715,18.563,11.612c2.119,1.95,4.208,4.235,5.218,6.976c0.16,0.471,0.233,0.956,0.22,1.456
			c-0.06-3.203,3.45-3.314,0.227-2.042c-1.855,0.732-4.064,0.665-6.017,0.658c-1.721-0.006-4.125-2.082-2.314-3.791
			c1.175-1.107,2.817-1.398,4.364-1.433c3.058-0.067,6.092,1.634,8.586,3.209c5.418,3.423,10.759,9.07,12.686,15.29
			C41.25,53.427,45.006,50.708,44.526,49.16L44.526,49.16z"/>
	</g>
	<g>
		<path fill="none" d="M170.513,53.217c16.529,4.388,33.971-16.706,12.044-20.758c-4.645-0.961,5.574,29.246,20.085,1.248"/>
		<path d="M169.017,55.809c10.052,2.333,18.753-3.084,23.437-11.735c1.676-3.099,2.748-6.383,0.732-9.584
			c-1.337-2.122-8.171-6.349-10.291-4.037c-4.486,4.89-3.093,11.081,1.251,15.589c7.853,8.147,16.261-7.509,19.144-12.879
			c1.986-3.699-0.393-0.592-1.295,1.09c-2.928,5.454-8.888,12.086-14.856,6.605c-1.43-1.313-2.401-3.115-3.167-4.871
			c-0.389-0.895-0.652-1.836-0.865-2.784c-0.09-0.426-0.145-0.855-0.166-1.29c-0.186-2.676,1.829,2.286-2.135,3.117
			c3.826-0.803,14.141,5.877,9.848,10.416c-4.69,4.961-12.143,6.689-18.644,5.18C171.051,50.404,169.135,55.836,169.017,55.809
			L169.017,55.809z"/>
	</g>
	<g>
		<path fill="none" d="M33.371,2.593c1.5,2.999,3,4.499,4.5,5.999"/>
		<path d="M31.875,5.185c1.173,2.29,2.689,4.187,4.5,5.998c0.165,0.166,1.678-2.308,1.755-2.441c0.153-0.265,1.56-2.418,1.237-2.74
			c-1.811-1.813-3.327-3.709-4.5-6c-0.035-0.067-1.67,2.295-1.755,2.442C32.869,2.865,31.596,4.639,31.875,5.185L31.875,5.185z"/>
	</g>
	<g>
		<path fill="none" d="M24.372,86.588c1.5-1.5,3-4.499,6-5.999"/>
		<path d="M22.998,89.126c2.011-2.082,3.347-4.599,6-5.998c0.325-0.172,0.659-0.823,0.842-1.102
			c0.422-0.643,0.813-1.307,1.179-1.982c0.097-0.179,1.031-2.154,0.726-1.994c-2.679,1.414-3.978,3.905-6,6
			c-0.842,0.872-1.449,2.025-2.021,3.083c-0.283,0.522-0.568,1.059-0.775,1.617C22.986,88.651,22.703,89.432,22.998,89.126
			L22.998,89.126z"/>
	</g>
	<g>
		<path fill="none" d="M165.365,20.592c1.5-4.5,4.499-10.5,8.999-13.5"/>
		<path d="M166.787,18.43c1.251-3.636,3.023-6.545,6.203-8.8c0.89-0.63,1.523-2.162,2.021-3.083
			c0.105-0.193,0.971-2.166,0.727-1.993c-5.796,4.108-9.539,11.639-11.797,18.2c-0.377,1.097,0.783-0.561,0.893-0.726
			C165.564,20.918,166.352,19.696,166.787,18.43L166.787,18.43z"/>
	</g>
	<g>
		<path fill="none" d="M169.864,73.089c4.5,6,10.499,9,17.999,11.999"/>
		<path d="M168.368,75.681c4.661,5.974,11.108,9.215,17.999,11.998c0.659,0.267,3.161-5.114,2.992-5.182
			c-6.891-2.784-13.338-6.025-17.999-12C171.542,70.731,167.674,74.79,168.368,75.681L168.368,75.681z"/>
	</g>
</g>
</svg>
