<?xml version="1.0" encoding="utf-8"?>
<!-- Generator: Adobe Illustrator 12.0.0, SVG Export Plug-In . SVG Version: 6.00 Build 51448)  -->
<!DOCTYPE svg PUBLIC "-//W3C//DTD SVG 1.1//EN" "http://www.w3.org/Graphics/SVG/1.1/DTD/svg11.dtd" [
	<!ENTITY ns_svg "http://www.w3.org/2000/svg">
	<!ENTITY ns_xlink "http://www.w3.org/1999/xlink">
]>
<svg  version="1.1" id="Layer_1" xmlns="&ns_svg;" xmlns:xlink="&ns_xlink;" width="545.87" height="314.891"
	 viewBox="0 0 545.87 314.891" overflow="visible" enable-background="new 0 0 545.87 314.891" xml:space="preserve">
<path fill="#FBE143" d="M365.3,166.188c0,52.518-42.571,95.088-95.086,95.088s-95.087-42.57-95.087-95.088
	c0-52.51,42.572-95.086,95.087-95.086S365.3,113.678,365.3,166.188z"/>
<g>
	<g>
		<path fill="#778637" d="M415.596,119.607c0-7.16-3.199-26.586-14.925-23.518c-11.903,3.804-3.504,19.993,3.732,23.877
			c-10.273-3.73-21.33,3.162-11.197,11.908c4.268,4.088,12.793-2.045,18.125,4.088c2.133,3.069,1.065,12.271,1.065,16.359
			c-1.063,24.501-24.444,30.651-45.741,19.479l-13.251-18.26l-24.825,18.016l25.592,35.266l-53.809,3.51l-0.949-17.109
			l-27.492,36.238l31.24,31.242l-1.097-19.744l18.3-1.193c7.23,22.452,17.205,45.761,26.83,65.59
			c8.482-17.595,20.268-38.354,21.379-59.024c-13.906,0.009-18.177,17.377-21.025,28.957c-6.183-11.746-9.887-24.256-15.063-36.313
			l51.425-3.354l27.744-1.811l-16.329-22.502L378.2,187.71c12.986,1.693,25.395,5.073,35.264-6.758
			c11.727-13.294,9.596-38.854,3.199-52.144C453.976,142.099,431.587,95.068,415.596,119.607z"/>
	</g>
</g>
<g>
	<g>
		<polygon fill="#778637" points="330.856,117.087 283.714,35.744 270.392,12.754 257.149,35.79 208.071,121.164 234.663,136.451 
			270.5,74.112 305.372,134.283 292.36,143.063 337.567,148.096 348.383,105.26 		"/>
	</g>
</g>
<g>
	<g>
		<path fill="#778637" d="M223.923,286.264c-2.79-14.884-2.206-29.765-4.385-44.646l35.431-0.858l-0.744-30.665l-59.343,1.438
			l19.09-39.867l16.563,6.441l-21.626-40.017l-41.366,15.526l17.759,6.904l-18.37,38.36c-17.761,5.599-34.657-1.856-35.539-23.045
			c0-4.089-1.023-13.292,1.022-16.358c5.113-6.135,13.292,0,17.382-4.088c9.718-8.746-0.885-15.639-10.738-11.91
			c6.94-3.884,14.997-20.074,3.581-23.877c-11.247-3.068-14.314,16.357-14.314,23.517c-15.336-24.538-36.809,22.491-1.024,9.202
			c-6.134,13.289-8.178,38.85,3.068,52.146c8.599,10.747,19.208,8.941,30.416,7.25l-4.373,9.131l-10.804,22.562l25.008-0.605
			l37.787-0.916c0.129,24.273,2.851,50.47,6.318,73.002c13.291-14.315,30.673-30.674,37.829-50.1
			C239.26,260.699,230.057,276.036,223.923,286.264z"/>
	</g>
</g>
<g>
	<path fill="#778637" d="M289.737,179.33c-1.614,4.926-5.05,8.93-9.675,11.272c-4.626,2.342-9.888,2.743-14.815,1.128
		c-10.17-3.334-15.733-14.32-12.4-24.49l-5.563-1.824c-4.337,13.24,2.903,27.541,16.14,31.878
		c6.416,2.102,13.264,1.581,19.285-1.468c6.02-3.049,10.491-8.26,12.593-14.673L289.737,179.33z"/>
</g>
<circle fill="#778637" cx="236.192" cy="150.789" r="6.646"/>
<path fill="#778637" d="M305.208,157.949c0,3.669-2.977,6.643-6.646,6.643c-3.671,0-6.646-2.974-6.646-6.643
	c0-3.675,2.976-6.646,6.646-6.646C302.231,151.303,305.208,154.274,305.208,157.949z"/>
<g>
	<path fill="none" d="M380.374,53.279c7-18,22-34,31-51"/>
	<path d="M381.797,51.117c7.212-17.93,21.079-32.441,30.225-49.383c1.995-3.695-0.389-0.59-1.295,1.089
		c-9.776,18.108-24.021,33.341-31.775,52.618c-0.436,1.082,0.795-0.579,0.892-0.726C380.589,53.581,381.289,52.379,381.797,51.117
		L381.797,51.117z"/>
</g>
<g>
	<path fill="none" d="M453.374,85.279c14-12,29-28,42-42"/>
	<path d="M452,87.817c15.073-13.021,28.673-27.649,42.213-42.226c0.898-0.967,1.554-2.324,2.14-3.492
		c0.098-0.193,0.966-1.977,0.183-1.134c-13.4,14.425-26.87,28.888-41.787,41.774C453.438,83.871,452.741,87.178,452,87.817
		L452,87.817z"/>
</g>
<g>
	<path fill="none" d="M476.374,129.279c17-9,48-7,68-10"/>
	<path d="M475,131.817c20.431-10.377,45.82-6.784,67.878-9.947c1.512-0.217,2.182-5.066,2.992-5.183
		c-22.184,3.182-47.572-0.385-68.122,10.053C476.327,127.462,475.623,131.501,475,131.817L475,131.817z"/>
</g>
<g>
	<path fill="none" d="M465.374,183.279c9,17,33,23,48,32"/>
	<path d="M463.878,185.87c9.844,17.683,31.709,22.421,48,32c0.375,0.221,3.394-4.946,2.992-5.183c-16.291-9.58-38.156-14.318-48-32
		C467.156,181.201,463.216,184.681,463.878,185.87L463.878,185.87z"/>
</g>
<g>
	<path fill="none" d="M146.374,47.279c-13-11-30-18-45-27"/>
	<path d="M147.87,44.688c-13.564-11.235-29.958-18.074-45-27c-0.368-0.219-3.399,4.941-2.992,5.183
		c15.042,8.925,31.436,15.765,45,27C144.975,49.951,148.457,45.174,147.87,44.688L147.87,44.688z"/>
</g>
<g>
	<path fill="none" d="M71.374,129.279c-16-13-42-14-61-17"/>
	<path d="M72.87,126.688c-17.1-13.416-40.428-13.824-61-17c-1.094-0.169-2.728,5.224-2.992,5.183c20.572,3.175,43.9,3.583,61,17
		C70.018,131.98,73.432,127.129,72.87,126.688L72.87,126.688z"/>
</g>
<g>
	<path fill="none" d="M87.374,196.279c-26,3-50,5-75,13"/>
	<path d="M88.87,193.688c-25.273,2.898-50.618,5.332-75,13c-1.625,0.512-1.948,4.854-2.992,5.183c24.382-7.669,49.727-10.101,75-13
		C87.36,198.7,88.106,193.775,88.87,193.688L88.87,193.688z"/>
</g>
<g>
	<path fill="none" d="M82.374,243.279c-28,10-55,30-81,45"/>
	<path d="M83.87,240.688c-29.242,10.65-54.405,29.554-81.122,45.053c-1.413,0.82-2.084,4.691-2.748,5.077
		c26.636-15.452,51.724-34.329,80.878-44.947C82.517,245.273,82.775,241.086,83.87,240.688L83.87,240.688z"/>
</g>
</svg>
