<?xml version="1.0" encoding="utf-8"?>
<!-- Generator: Adobe Illustrator 12.0.0, SVG Export Plug-In . SVG Version: 6.00 Build 51448)  -->
<!DOCTYPE svg PUBLIC "-//W3C//DTD SVG 1.1//EN" "http://www.w3.org/Graphics/SVG/1.1/DTD/svg11.dtd" [
	<!ENTITY ns_svg "http://www.w3.org/2000/svg">
	<!ENTITY ns_xlink "http://www.w3.org/1999/xlink">
]>
<svg  version="1.1" id="Layer_1" xmlns="&ns_svg;" xmlns:xlink="&ns_xlink;" width="799.585" height="435.732"
	 viewBox="0 0 799.585 435.732" overflow="visible" enable-background="new 0 0 799.585 435.732" xml:space="preserve">
<circle fill="#FBE143" cx="385.714" cy="226.146" r="129.944"/>
<g>
	<path fill="#778637" d="M306.771,318.363c-1.398,37.726,2.794,81.041,8.384,117.369c18.163-19.561,41.917-41.917,51.697-68.464
		c-18.163-5.59-30.738,15.369-39.122,29.343c-4.192-22.357-2.796-44.714-6.988-67.068"/>
</g>
<g>
	<path fill="#778637" d="M453.58,313.021c9.784,36.461,26.559,76.616,42.609,109.682c11.591-24.046,27.697-52.411,29.218-80.663
		c-19.004,0.015-24.842,23.749-28.734,39.572c-10.594-20.128-15.85-41.901-26.448-62.029"/>
</g>
<g>
	<path fill="#778637" d="M261.361,293.212c-22.357-1.398-44.714,12.575-61.48-8.384c-15.369-18.165-12.576-53.097-4.192-71.26
		c-48.903,18.163-19.561-46.109,1.398-12.575c0-9.781,4.191-36.33,19.561-32.138c16.767,5.589,2.796,30.74-6.985,33.534
		c13.973-6.985,30.74,2.796,16.767,15.371c-5.59,5.588-16.767-2.796-23.753,5.588c-2.795,4.191-1.398,16.768-1.398,22.356
		c1.398,33.534,32.136,41.918,60.083,26.549"/>
</g>
<g>
	<path fill="#778637" d="M522.646,261.079c23.313-1.4,46.625,12.575,64.108-8.384c16.022-18.167,13.111-53.098,4.372-71.26
		c50.988,18.163,20.394-46.109-1.462-12.575c0-9.784-4.372-36.33-20.394-32.138c-17.483,5.588-2.915,30.738,7.282,33.534
		c-14.568-6.988-32.052,2.796-17.483,15.371c5.829,5.588,17.483-2.796,24.77,5.588c2.915,4.191,1.453,16.767,1.453,22.354
		c-1.453,33.534-33.505,41.918-62.646,26.551"/>
</g>
<polygon fill="#778637" points="603.45,317.102 557.713,254.077 440.301,92.276 370.767,142.732 442.446,241.509 291.739,251.333 
	289.076,203.415 212.073,304.916 299.576,392.42 296.504,337.12 525.743,322.167 "/>
<g>
	<g>
		<polygon fill="#778637" points="360.443,113.831 335.429,70.668 328.358,58.47 321.331,70.693 295.29,115.996 309.4,124.105 
			328.416,91.028 346.92,122.956 340.016,127.615 364.004,130.286 369.743,107.555 		"/>
	</g>
</g>
<polygon fill="#778637" points="308.604,184.14 277.117,184.904 287.247,163.749 296.035,167.167 284.559,145.934 262.61,154.172 
	272.033,157.835 256.703,189.847 250.97,201.819 264.241,201.497 309,200.411 "/>
<path fill="none" stroke="#778637" stroke-width="6.3727" d="M371.401,204.63c-2.485,7.581-10.643,11.712-18.226,9.228
	c-7.579-2.483-11.712-10.642-9.227-18.223"/>
<circle fill="#778637" cx="329.631" cy="179.806" r="5.524"/>
<circle fill="#778637" cx="381.462" cy="185.753" r="5.523"/>
<g>
	<g>
		<g>
			<path fill="none" d="M225.372,90.916c-12.545-24.535-36.156-45.073-51.396-67.901"/>
			<path d="M227.506,87.218c-13.245-25.396-35.481-44.352-51.396-67.901c0.34,0.503-5.257,5.935-4.27,7.396
				c15.915,23.549,38.151,42.504,51.396,67.901C222.815,93.805,228.429,88.988,227.506,87.218L227.506,87.218z"/>
		</g>
	</g>
	<g>
		<g>
			<path fill="none" d="M126.382,146.922c-21.612-15.006-45.221-35.543-65.706-53.532"/>
			<path d="M128.517,143.225c-23.177-16.186-44.488-34.904-65.706-53.532c-0.075-0.066-5.142,6.63-4.27,7.396
				c21.218,18.627,42.528,37.346,65.706,53.532C124.581,150.853,129.232,143.725,128.517,143.225L128.517,143.225z"/>
		</g>
	</g>
	<g>
		<g>
			<path fill="none" d="M100.111,212.713c-25.435-10.312-69.153-2.98-97.976-4.339"/>
			<path d="M102.246,209.016c-15.009-5.871-31.84-5.832-47.717-5.527c-16.746,0.322-33.505,1.899-50.259,1.188
				c-1.822-0.077-3.586,7.424-4.27,7.395c16.747,0.711,33.52-0.805,50.259-1.188c15.852-0.363,32.738-0.333,47.717,5.526
				C98.946,216.791,102.458,209.099,102.246,209.016L102.246,209.016z"/>
		</g>
	</g>
	<g>
		<g>
			<path fill="none" d="M123.552,287.775c-10.313,25.436-43.513,37.433-63.499,52.381"/>
			<path d="M121.781,290.239c-4.986,11.783-18.066,20.057-28.459,26.674c-10.388,6.614-21.383,12.296-31.309,19.621
				c-1.27,0.937-2.161,3.062-2.884,4.399c-0.153,0.282-1.37,3.091-1.037,2.845c12.519-9.239,26.635-16.039,39.355-24.991
				c12.213-8.596,22.021-19.641,27.875-33.476c0.556-1.313,0.336-1.496-0.523-0.302
				C123.644,286.619,122.555,288.411,121.781,290.239L121.781,290.239z"/>
		</g>
	</g>
	<g>
		<g>
			<path fill="none" d="M556.672,48.488c16.859-17.498,39.978-29.898,59.965-44.851"/>
			<path d="M554.712,52.11c17.568-17.964,39.939-29.978,59.965-44.851c1.269-0.942,2.158-3.058,2.884-4.399
				c0.153-0.283,1.367-3.091,1.036-2.845c-20.024,14.872-42.396,26.886-59.965,44.851c-1.207,1.234-2.07,2.895-2.884,4.399
				C555.552,49.626,554.513,52.313,554.712,52.11L554.712,52.11z"/>
		</g>
	</g>
	<g>
		<g>
			<path fill="none" d="M675.021,154.019c20.828-20.771,57.59-25.96,84.126-32.971"/>
			<path d="M673.061,157.641c22.136-21.562,55.355-25.414,83.951-32.896c1.015-0.266,2.046-2.69,2.505-3.484
				c0.173-0.3,1.677-3.888,1.765-3.911c-28.693,7.507-62.08,11.402-84.301,33.047C675.193,152.137,674.124,156.605,673.061,157.641
				L673.061,157.641z"/>
		</g>
	</g>
	<g>
		<g>
			<path fill="none" d="M662.017,251.447c37.343,0.492,71.7-0.147,108.35,7.582"/>
			<path d="M659.882,255.144c36.282,0.461,72.646,0.185,108.35,7.582c1.43,0.297,4.034-7.443,4.27-7.395
				c-35.704-7.398-72.067-7.121-108.35-7.582C662.267,247.725,660.646,255.154,659.882,255.144L659.882,255.144z"/>
		</g>
	</g>
	<g>
		<g>
			<path fill="none" d="M675.927,317.439c41.197,10.139,82.421,34.616,121.502,52.141"/>
			<path d="M673.792,321.136c42.999,10.789,81.394,34.072,121.502,52.141c0.83,0.374,4.605-7.243,4.27-7.395
				c-40.108-18.069-78.503-41.353-121.502-52.141C676.741,313.411,673.913,321.167,673.792,321.136L673.792,321.136z"/>
		</g>
	</g>
</g>
</svg>
