<?xml version="1.0" encoding="utf-8"?>
<!-- Generator: Adobe Illustrator 12.0.0, SVG Export Plug-In . SVG Version: 6.00 Build 51448)  -->
<!DOCTYPE svg PUBLIC "-//W3C//DTD SVG 1.1//EN" "http://www.w3.org/Graphics/SVG/1.1/DTD/svg11.dtd" [
	<!ENTITY ns_svg "http://www.w3.org/2000/svg">
	<!ENTITY ns_xlink "http://www.w3.org/1999/xlink">
]>
<svg  version="1.1" id="Layer_1" xmlns="&ns_svg;" xmlns:xlink="&ns_xlink;" width="435.685" height="399.836"
	 viewBox="0 0 435.685 399.836" overflow="visible" enable-background="new 0 0 435.685 399.836" xml:space="preserve">
<path fill="#FBE143" d="M340.784,203.046c0,69.503-56.34,125.839-125.831,125.839c-69.5,0-125.839-56.336-125.839-125.839
	c0-69.488,56.339-125.831,125.839-125.831C284.444,77.215,340.784,133.558,340.784,203.046z"/>
<g>
	<g>
		<path fill="#778637" d="M407.34,141.404c0-9.472-4.232-35.182-19.748-31.12c-15.754,5.033-4.637,26.456,4.939,31.596
			c-13.596-4.934-28.229,4.186-14.816,15.763c5.646,5.405,16.929-2.707,23.983,5.405c2.823,4.063,1.409,16.242,1.409,21.652
			c-1.407,32.42-32.351,40.563-60.53,25.775l-17.537-24.166l-32.851,23.846l33.866,46.666l-71.207,4.646l-1.259-22.641
			l-36.379,47.956l41.341,41.346l-1.451-26.131l24.216-1.579c9.569,29.712,22.769,60.56,35.506,86.799
			c11.226-23.285,26.822-50.756,28.293-78.111c-18.403,0.012-24.057,22.996-27.825,38.322
			c-8.183-15.546-13.083-32.101-19.934-48.056l68.056-4.438l36.715-2.398l-21.609-29.776l-22.662-31.229
			c17.186,2.241,33.606,6.711,46.666-8.945c15.519-17.589,12.7-51.416,4.235-69.001C458.134,171.169,428.505,108.933,407.34,141.404
			z"/>
	</g>
</g>
<g>
	<g>
		<polygon fill="#778637" points="295.2,138.069 232.816,30.425 215.188,0 197.661,30.486 132.713,143.467 167.904,163.697 
			215.33,81.195 261.478,160.826 244.257,172.447 304.083,179.104 318.394,122.417 		"/>
	</g>
</g>
<g>
	<g>
		<path fill="#778637" d="M153.69,361.95c-3.688-19.695-2.919-39.387-5.803-59.079l46.889-1.137l-0.984-40.581l-78.531,1.904
			l25.262-52.76l21.918,8.526l-28.618-52.957l-54.744,20.547l23.505,9.137l-24.311,50.763c-23.504,7.41-45.864-2.456-47.031-30.494
			c0-5.413-1.355-17.593,1.352-21.651c6.765-8.116,17.589,0,23.003-5.41c12.86-11.572-1.172-20.695-14.212-15.758
			c9.187-5.143,19.847-26.566,4.739-31.6c-14.882-4.063-18.941,21.647-18.941,31.12c-20.296-32.472-48.713,29.765-1.355,12.18
			c-8.117,17.585-10.824,51.412,4.059,69.005c11.38,14.225,25.418,11.834,40.251,9.596l-5.787,12.083L50.054,305.24l33.094-0.799
			l50.006-1.213c0.17,32.122,3.771,66.791,8.36,96.607c17.589-18.944,40.592-40.592,50.061-66.302
			C173.986,328.12,161.806,348.416,153.69,361.95z"/>
	</g>
</g>
</svg>
